<svg transform="scale(1)" version="1.1" id="Layer_1" xmlns="http://www.w3.org/2000/svg" xmlns:xlink="http://www.w3.org/1999/xlink" x="0px" y="0px" viewBox="0 0 500 500" xml:space="preserve" class="show_show__wrapper__graphic__5Waiy "><title>React</title><style type="text/css">
	.st0{fill:#88BC46;}
	.st1{fill:#606060;}
	.st2{fill:url(#SVGID_1_);}
	.st3{fill:#F9E1AA;}
	.st4{opacity:0.2;fill:#606060;enable-background:new    ;}
	.st5{fill:#1E4549;}
	.st6{fill:#BC532A;}
	.st7{fill:url(#SVGID_00000003072433014241814860000003821798273430932865_);}
	.st8{fill:url(#SVGID_00000071533954903892847800000017873225538864656826_);}
	.st9{fill:#CCCCCC;}
	.st10{fill:#AAAAAA;}
	.st11{opacity:0.4;fill:#606060;enable-background:new    ;}
	.st12{fill:#68E1FD;}
	.st13{fill:url(#SVGID_00000130612936034708860400000014822906979311549570_);}
	.st14{opacity:0.33;fill:#1E4549;enable-background:new    ;}
	.st15{fill:#2C9135;}
	.st16{opacity:0.5;fill:#606060;enable-background:new    ;}
	.st17{fill:url(#SVGID_00000044163042808001505270000006466478650712723120_);}
</style><g id="field"><path class="st0" d="M257,407.2l219.3-129.6c7-3.9,13-10.4,6.2-14.6L262.4,136.1c-3.3-2.1-8.3-3.4-11.7-1.4L20.4,268.3
		c-7,4.1-8.2,15.4-1.2,19.4L228.1,407C237,412.2,248,412.2,257,407.2z"></path><polygon class="st1" points="438.4,299.9 189.8,155.4 173.6,165.1 422,309.6 	"></polygon><polygon class="st1" points="330.7,363.6 93.4,225.7 77.2,235.4 314.3,373.3 	"></polygon><polygon class="st1" points="72.6,318.3 324.7,171.8 340.9,181.4 89.3,327.8 	"></polygon><polygon class="st1" points="180.8,379.8 432.9,233.3 449.1,243 197.5,389.4 	"></polygon></g><g id="building_5"><linearGradient id="SVGID_1_" gradientUnits="userSpaceOnUse" x1="388.6591" y1="196.641" x2="406.9591" y2="212.181" gradientTransform="matrix(1 0 0 -1 0 502)"><stop offset="0" style="stop-color: rgb(136, 168, 13); stop-opacity: 0;"></stop><stop offset="0.5" style="stop-color: rgb(136, 168, 13); stop-opacity: 0;"></stop><stop offset="1" style="stop-color: rgb(136, 168, 13);"></stop></linearGradient><polyline class="st2" points="406.8,273.3 368.3,296.9 399,314.8 437.6,289.5 	"></polyline><polygon class="st3" points="404.8,276.3 404.8,149.2 432.5,164.7 432.5,292.3 	"></polygon><polygon class="st3" points="432.5,164.7 460.7,149.2 460.7,275.8 432.5,292.3 	"></polygon><polygon class="st1" points="404.8,149.2 432.5,132.2 460.7,149.2 432.5,164.7 	"></polygon><polygon class="st3" points="432.5,164.7 460.7,114.6 460.7,149.2 	"></polygon><polygon class="st4" points="432.5,164.7 460.7,149.2 460.7,275.8 432.5,292.3 	"></polygon><polygon class="st4" points="432.5,164.7 460.7,114.6 460.7,149.2 	"></polygon><polygon class="st3" points="460.7,114.6 432.7,96.6 404.8,149.2 432.5,164.7 	"></polygon><polygon class="st5" points="454.3,152.2 454.3,156.8 457.4,155.2 457.4,150.4 	"></polygon><polygon class="st5" points="454.3,145.9 454.3,150.4 457.4,148.9 457.4,144.1 	"></polygon><polygon class="st5" points="454.3,165 454.3,169.6 457.4,168 457.4,163.2 	"></polygon><polygon class="st5" points="454.3,158.6 454.3,163.2 457.4,161.6 457.4,156.8 	"></polygon><polygon class="st5" points="454.3,178.8 454.3,183.4 457.4,181.8 457.4,177 	"></polygon><polygon class="st5" points="454.3,172.4 454.3,177 457.4,175.4 457.4,170.7 	"></polygon><polygon class="st5" points="454.3,191.6 454.3,196.1 457.4,194.6 457.4,189.8 	"></polygon><polygon class="st5" points="454.3,185.2 454.3,189.8 457.4,188.2 457.4,183.4 	"></polygon><polygon class="st5" points="454.4,205.4 454.4,210 457.4,208.4 457.4,203.6 	"></polygon><polygon class="st5" points="454.4,199.1 454.4,203.6 457.4,202.1 457.4,197.3 	"></polygon><polygon class="st5" points="454.4,218.2 454.4,222.8 457.4,221.2 457.4,216.4 	"></polygon><polygon class="st5" points="454.4,211.8 454.4,216.4 457.4,214.8 457.4,210 	"></polygon><polygon class="st5" points="454.4,232 454.4,236.6 457.4,235 457.4,230.2 	"></polygon><polygon class="st5" points="454.4,225.6 454.4,230.2 457.4,228.6 457.4,223.9 	"></polygon><polygon class="st5" points="454.4,244.8 454.4,249.4 457.4,247.8 457.4,243 	"></polygon><polygon class="st5" points="454.4,238.4 454.4,243 457.4,241.4 457.4,236.6 	"></polygon><polygon class="st5" points="454.4,258 454.4,262.6 457.4,261 457.4,256.2 	"></polygon><polygon class="st5" points="454.4,251.6 454.4,256.2 457.4,254.6 457.4,249.9 	"></polygon><polygon class="st5" points="454.4,270.8 454.4,275.4 457.4,273.8 457.4,269 	"></polygon><polygon class="st5" points="454.4,264.4 454.4,269 457.4,267.4 457.4,262.6 	"></polygon><polygon class="st5" points="448.9,154.7 448.9,159.3 452,157.7 452,152.9 	"></polygon><polygon class="st5" points="448.9,148.3 448.9,152.9 452,151.3 452,146.5 	"></polygon><polygon class="st5" points="448.9,167.4 448.9,172 452,170.4 452,165.6 	"></polygon><polygon class="st5" points="448.9,161.1 448.9,165.6 452,164.1 452,159.3 	"></polygon><polygon class="st5" points="448.9,181.3 448.9,185.9 452,184.3 452,179.5 	"></polygon><polygon class="st5" points="448.9,174.9 448.9,179.5 452,177.9 452,173.1 	"></polygon><polygon class="st5" points="448.9,194 448.9,198.6 452,197 452,192.2 	"></polygon><polygon class="st5" points="448.9,187.6 448.9,192.2 452,190.6 452,185.9 	"></polygon><polygon class="st5" points="449,207.9 449,212.5 452,210.9 452,206.1 	"></polygon><polygon class="st5" points="449,201.5 449,206.1 452,204.5 452,199.7 	"></polygon><polygon class="st5" points="449,220.6 449,225.2 452,223.6 452,218.8 	"></polygon><polygon class="st5" points="449,214.2 449,218.8 452,217.2 452,212.5 	"></polygon><polygon class="st5" points="449,234.5 449,239.1 452,237.5 452,232.7 	"></polygon><polygon class="st5" points="449,228.1 449,232.7 452,231.1 452,226.3 	"></polygon><polygon class="st5" points="449,247.2 449,251.8 452,250.2 452,245.4 	"></polygon><polygon class="st5" points="449,240.9 449,245.4 452,243.9 452,239.1 	"></polygon><polygon class="st5" points="449,260.5 449,265.1 452,263.5 452,258.7 	"></polygon><polygon class="st5" points="449,254.1 449,258.7 452,257.1 452,252.3 	"></polygon><polygon class="st5" points="449,273.2 449,277.8 452,276.2 452,271.4 	"></polygon><polygon class="st5" points="449,266.9 449,271.4 452,269.9 452,265.1 	"></polygon><polygon class="st5" points="442.5,158.7 442.5,163.2 445.5,161.7 445.5,156.9 	"></polygon><polygon class="st5" points="442.5,152.3 442.5,156.9 445.5,155.3 445.5,150.5 	"></polygon><polygon class="st5" points="442.5,171.4 442.5,176 445.5,174.4 445.5,169.6 	"></polygon><polygon class="st5" points="442.5,165 442.5,169.6 445.5,168 445.5,163.2 	"></polygon><polygon class="st5" points="442.5,185.3 442.5,189.9 445.5,188.3 445.5,183.5 	"></polygon><polygon class="st5" points="442.5,178.9 442.5,183.5 445.5,181.9 445.5,177.1 	"></polygon><polygon class="st5" points="442.5,198 442.5,202.6 445.5,201 445.5,196.2 	"></polygon><polygon class="st5" points="442.5,191.6 442.5,196.2 445.5,194.6 445.5,189.9 	"></polygon><polygon class="st5" points="442.5,211.9 442.5,216.4 445.6,214.9 445.6,210.1 	"></polygon><polygon class="st5" points="442.5,205.5 442.5,210.1 445.6,208.5 445.6,203.7 	"></polygon><polygon class="st5" points="442.5,224.6 442.5,229.2 445.6,227.6 445.6,222.8 	"></polygon><polygon class="st5" points="442.5,218.2 442.5,222.8 445.6,221.2 445.6,216.4 	"></polygon><polygon class="st5" points="442.5,238.5 442.5,243.1 445.6,241.5 445.6,236.7 	"></polygon><polygon class="st5" points="442.5,232.1 442.5,236.7 445.6,235.1 445.6,230.3 	"></polygon><polygon class="st5" points="442.5,251.2 442.5,255.8 445.6,254.2 445.6,249.4 	"></polygon><polygon class="st5" points="442.5,244.8 442.5,249.4 445.6,247.8 445.6,243.1 	"></polygon><polygon class="st5" points="442.5,264.5 442.5,269 445.6,267.5 445.6,262.7 	"></polygon><polygon class="st5" points="442.5,258.1 442.5,262.7 445.6,261.1 445.6,256.3 	"></polygon><polygon class="st5" points="442.5,277.2 442.5,281.8 445.6,280.2 445.6,275.4 	"></polygon><polygon class="st5" points="442.5,270.8 442.5,275.4 445.6,273.8 445.6,269 	"></polygon><polygon class="st5" points="436.8,162.9 436.8,167.5 439.8,165.9 439.8,161.2 	"></polygon><polygon class="st5" points="436.8,175.7 436.8,180.3 439.8,178.7 439.8,173.9 	"></polygon><polygon class="st5" points="436.8,169.3 436.8,173.9 439.8,172.3 439.8,167.5 	"></polygon><polygon class="st5" points="436.8,189.6 436.8,194.1 439.8,192.5 439.8,187.8 	"></polygon><polygon class="st5" points="436.8,183.2 436.8,187.8 439.8,186.2 439.8,181.4 	"></polygon><polygon class="st5" points="436.8,202.3 436.8,206.9 439.8,205.3 439.8,200.5 	"></polygon><polygon class="st5" points="436.8,195.9 436.8,200.5 439.8,198.9 439.8,194.1 	"></polygon><polygon class="st5" points="436.8,216.1 436.8,220.7 439.9,219.1 439.9,214.4 	"></polygon><polygon class="st5" points="436.8,209.8 436.8,214.4 439.9,212.8 439.9,208 	"></polygon><polygon class="st5" points="436.8,228.9 436.8,233.5 439.9,231.9 439.9,227.1 	"></polygon><polygon class="st5" points="436.8,222.5 436.8,227.1 439.9,225.5 439.9,220.7 	"></polygon><polygon class="st5" points="436.8,242.8 436.8,247.3 439.9,245.8 439.9,241 	"></polygon><polygon class="st5" points="436.8,236.4 436.8,241 439.9,239.4 439.9,234.6 	"></polygon><polygon class="st5" points="436.8,255.5 436.8,260.1 439.9,258.5 439.9,253.7 	"></polygon><polygon class="st5" points="436.8,249.1 436.8,253.7 439.9,252.1 439.9,247.3 	"></polygon><polygon class="st5" points="436.8,268.8 436.8,273.3 439.9,271.8 439.9,267 	"></polygon><polygon class="st5" points="436.8,262.4 436.8,267 439.9,265.4 439.9,260.6 	"></polygon><polygon class="st5" points="436.8,281.5 436.8,286.1 439.9,284.5 439.9,279.7 	"></polygon><polygon class="st5" points="436.8,275.1 436.8,279.7 439.9,278.1 439.9,273.3 	"></polygon><polygon class="st5" points="410.6,166.1 410.6,170.7 407.5,169.1 407.5,164.4 	"></polygon><polygon class="st5" points="410.6,159.8 410.6,164.4 407.5,162.8 407.5,158 	"></polygon><polygon class="st5" points="410.6,180 410.6,184.6 407.5,183 407.5,178.2 	"></polygon><polygon class="st5" points="410.6,173.6 410.6,178.2 407.5,176.6 407.5,171.9 	"></polygon><polygon class="st5" points="410.6,192.7 410.6,197.3 407.5,195.7 407.5,191 	"></polygon><polygon class="st5" points="410.6,186.4 410.6,191 407.5,189.4 407.5,184.6 	"></polygon><polygon class="st5" points="410.5,206.6 410.5,211.2 407.5,209.6 407.5,204.8 	"></polygon><polygon class="st5" points="410.5,200.2 410.5,204.8 407.5,203.2 407.5,198.4 	"></polygon><polygon class="st5" points="410.5,219.3 410.5,223.9 407.5,222.3 407.5,217.6 	"></polygon><polygon class="st5" points="410.5,213 410.5,217.6 407.5,216 407.5,211.2 	"></polygon><polygon class="st5" points="410.5,233.2 410.5,237.8 407.5,236.2 407.5,231.4 	"></polygon><polygon class="st5" points="410.5,226.8 410.5,231.4 407.5,229.8 407.5,225.1 	"></polygon><polygon class="st5" points="410.5,245.9 410.5,250.5 407.5,248.9 407.5,244.2 	"></polygon><polygon class="st5" points="410.5,239.6 410.5,244.2 407.5,242.6 407.5,237.8 	"></polygon><polygon class="st5" points="410.5,259.2 410.5,263.8 407.5,262.2 407.5,257.4 	"></polygon><polygon class="st5" points="410.5,252.8 410.5,257.4 407.5,255.8 407.5,251.1 	"></polygon><polygon class="st5" points="410.5,271.9 410.5,276.5 407.5,274.9 407.5,270.2 	"></polygon><polygon class="st5" points="410.5,265.6 410.5,270.2 407.5,268.6 407.5,263.8 	"></polygon><polygon class="st5" points="416.2,169.6 416.2,174.2 413.1,172.6 413.1,167.8 	"></polygon><polygon class="st5" points="416.2,163.2 416.2,167.8 413.1,166.2 413.1,161.5 	"></polygon><polygon class="st5" points="416.2,183.5 416.2,188.1 413.1,186.5 413.1,181.7 	"></polygon><polygon class="st5" points="416.2,177.1 416.2,181.7 413.1,180.1 413.1,175.3 	"></polygon><polygon class="st5" points="416.2,196.2 416.2,200.8 413.1,199.2 413.1,194.4 	"></polygon><polygon class="st5" points="416.2,189.9 416.2,194.4 413.1,192.9 413.1,188.1 	"></polygon><polygon class="st5" points="416.1,210.1 416.1,214.7 413.1,213.1 413.1,208.3 	"></polygon><polygon class="st5" points="416.1,203.7 416.1,208.3 413.1,206.7 413.1,201.9 	"></polygon><polygon class="st5" points="416.1,222.8 416.1,227.4 413.1,225.8 413.1,221 	"></polygon><polygon class="st5" points="416.1,216.4 416.1,221 413.1,219.4 413.1,214.7 	"></polygon><polygon class="st5" points="416.1,236.7 416.1,241.3 413.1,239.7 413.1,234.9 	"></polygon><polygon class="st5" points="416.1,230.3 416.1,234.9 413.1,233.3 413.1,228.5 	"></polygon><polygon class="st5" points="416.1,249.4 416.1,254 413.1,252.4 413.1,247.6 	"></polygon><polygon class="st5" points="416.1,243.1 416.1,247.6 413.1,246.1 413.1,241.3 	"></polygon><polygon class="st5" points="416.1,262.7 416.1,267.3 413.1,265.7 413.1,260.9 	"></polygon><polygon class="st5" points="416.1,256.3 416.1,260.9 413.1,259.3 413.1,254.5 	"></polygon><polygon class="st5" points="416.1,275.4 416.1,280 413.1,278.4 413.1,273.6 	"></polygon><polygon class="st5" points="416.1,269 416.1,273.6 413.1,272 413.1,267.3 	"></polygon><polygon class="st5" points="421.8,172.9 421.8,177.5 418.7,175.9 418.7,171.1 	"></polygon><polygon class="st5" points="421.8,166.5 421.8,171.1 418.7,169.5 418.7,164.8 	"></polygon><polygon class="st5" points="421.8,186.8 421.8,191.4 418.7,189.8 418.7,185 	"></polygon><polygon class="st5" points="421.8,180.4 421.8,185 418.7,183.4 418.7,178.6 	"></polygon><polygon class="st5" points="421.8,199.5 421.8,204.1 418.7,202.5 418.7,197.7 	"></polygon><polygon class="st5" points="421.8,193.1 421.8,197.7 418.7,196.1 418.7,191.4 	"></polygon><polygon class="st5" points="421.7,213.4 421.7,218 418.6,216.4 418.6,211.6 	"></polygon><polygon class="st5" points="421.7,207 421.7,211.6 418.6,210 418.6,205.2 	"></polygon><polygon class="st5" points="421.7,226.1 421.7,230.7 418.6,229.1 418.6,224.3 	"></polygon><polygon class="st5" points="421.7,219.8 421.7,224.3 418.6,222.7 418.6,218 	"></polygon><polygon class="st5" points="421.7,240 421.7,244.6 418.6,243 418.6,238.2 	"></polygon><polygon class="st5" points="421.7,233.6 421.7,238.2 418.6,236.6 418.6,231.8 	"></polygon><polygon class="st5" points="421.7,252.7 421.7,257.3 418.6,255.7 418.6,250.9 	"></polygon><polygon class="st5" points="421.7,246.4 421.7,250.9 418.6,249.3 418.6,244.6 	"></polygon><polygon class="st5" points="421.7,266 421.7,270.6 418.6,269 418.6,264.2 	"></polygon><polygon class="st5" points="421.7,259.6 421.7,264.2 418.6,262.6 418.6,257.8 	"></polygon><polygon class="st5" points="421.7,278.7 421.7,283.3 418.6,281.7 418.6,276.9 	"></polygon><polygon class="st5" points="421.7,272.3 421.7,276.9 418.6,275.3 418.6,270.6 	"></polygon><polygon class="st5" points="427.6,176.4 427.6,181 424.6,179.4 424.6,174.6 	"></polygon><polygon class="st5" points="427.6,170.1 427.6,174.6 424.6,173 424.6,168.3 	"></polygon><polygon class="st5" points="427.6,190.3 427.6,194.9 424.6,193.3 424.6,188.5 	"></polygon><polygon class="st5" points="427.6,183.9 427.6,188.5 424.6,186.9 424.6,182.1 	"></polygon><polygon class="st5" points="427.6,203 427.6,207.6 424.6,206 424.6,201.2 	"></polygon><polygon class="st5" points="427.6,196.6 427.6,201.2 424.6,199.6 424.6,194.9 	"></polygon><polygon class="st5" points="427.6,216.9 427.6,221.5 424.5,219.9 424.5,215.1 	"></polygon><polygon class="st5" points="427.6,210.5 427.6,215.1 424.5,213.5 424.5,208.7 	"></polygon><polygon class="st5" points="427.6,229.6 427.6,234.2 424.5,232.6 424.5,227.8 	"></polygon><polygon class="st5" points="427.6,223.2 427.6,227.8 424.5,226.2 424.5,221.5 	"></polygon><polygon class="st5" points="427.6,243.5 427.6,248.1 424.5,246.5 424.5,241.7 	"></polygon><polygon class="st5" points="427.6,237.1 427.6,241.7 424.5,240.1 424.5,235.3 	"></polygon><polygon class="st5" points="427.6,256.2 427.6,260.8 424.5,259.2 424.5,254.4 	"></polygon><polygon class="st5" points="427.6,249.9 427.6,254.4 424.5,252.9 424.5,248.1 	"></polygon><polygon class="st5" points="427.6,269.5 427.6,274.1 424.5,272.5 424.5,267.7 	"></polygon><polygon class="st5" points="427.6,263.1 427.6,267.7 424.5,266.1 424.5,261.3 	"></polygon><polygon class="st5" points="427.6,282.2 427.6,286.8 424.5,285.2 424.5,280.4 	"></polygon><polygon class="st5" points="427.6,275.9 427.6,280.4 424.5,278.9 424.5,274.1 	"></polygon><path class="st6" d="M432.8,157.1l-21.9-12.2l21.7-40.8l22,14.2L432.8,157.1z M412.2,144.5l20.1,11.2l20.9-37.1l-20.3-13.1
		L412.2,144.5z"></path></g><g id="building_4"><linearGradient id="SVGID_00000054983243456010234170000007471284383159937434_" gradientUnits="userSpaceOnUse" x1="272.1099" y1="188.4402" x2="308.7099" y2="220.2002" gradientTransform="matrix(1 0 0 -1 0 502)"><stop offset="0" style="stop-color: rgb(136, 168, 13); stop-opacity: 0;"></stop><stop offset="0.5" style="stop-color: rgb(136, 168, 13); stop-opacity: 0;"></stop><stop offset="1" style="stop-color: rgb(136, 168, 13);"></stop></linearGradient><polyline points="308.6,265.3 270.1,288.9 
		299.2,304.7 339.4,281.5 	" style="fill: url(&quot;#SVGID_00000054983243456010234170000007471284383159937434_&quot;);"></polyline><polygon class="st3" points="296.5,274.3 296.5,147.2 324.2,162.7 324.2,290.3 	"></polygon><polygon class="st3" points="324.2,162.7 352.4,147.2 352.4,273.8 324.2,290.3 	"></polygon><polygon class="st1" points="296.5,147.2 324.2,130.2 352.4,147.2 324.2,162.7 	"></polygon><polygon class="st3" points="324.2,162.7 352.4,112.6 352.4,147.2 	"></polygon><polygon class="st4" points="324.2,162.7 352.4,147.2 352.4,273.8 324.2,290.3 	"></polygon><polygon class="st4" points="324.2,162.7 352.4,112.6 352.4,147.2 	"></polygon><polygon class="st3" points="352.4,112.6 324.5,94.5 296.5,147.2 324.2,162.7 	"></polygon><polygon class="st5" points="346,150.2 346,154.8 349.1,153.2 349.1,148.4 	"></polygon><polygon class="st5" points="346,143.8 346,148.4 349.1,146.8 349.1,142 	"></polygon><polygon class="st5" points="346,162.9 346,167.5 349.1,165.9 349.1,161.2 	"></polygon><polygon class="st5" points="346,156.6 346,161.2 349.1,159.6 349.1,154.8 	"></polygon><polygon class="st5" points="346,176.8 346,181.4 349.1,179.8 349.1,175 	"></polygon><polygon class="st5" points="346,170.4 346,175 349.1,173.4 349.1,168.6 	"></polygon><polygon class="st5" points="346,189.5 346,194.1 349.1,192.5 349.1,187.8 	"></polygon><polygon class="st5" points="346,183.2 346,187.8 349.1,186.2 349.1,181.4 	"></polygon><polygon class="st5" points="346.1,203.4 346.1,208 349.1,206.4 349.1,201.6 	"></polygon><polygon class="st5" points="346.1,197 346.1,201.6 349.1,200 349.1,195.2 	"></polygon><polygon class="st5" points="346.1,216.1 346.1,220.7 349.1,219.1 349.1,214.4 	"></polygon><polygon class="st5" points="346.1,209.8 346.1,214.4 349.1,212.8 349.1,208 	"></polygon><polygon class="st5" points="346.1,230 346.1,234.6 349.1,233 349.1,228.2 	"></polygon><polygon class="st5" points="346.1,223.6 346.1,228.2 349.1,226.6 349.1,221.9 	"></polygon><polygon class="st5" points="346.1,242.8 346.1,247.3 349.1,245.7 349.1,241 	"></polygon><polygon class="st5" points="346.1,236.4 346.1,241 349.1,239.4 349.1,234.6 	"></polygon><polygon class="st5" points="346.1,256 346.1,260.6 349.1,259 349.1,254.2 	"></polygon><polygon class="st5" points="346.1,249.6 346.1,254.2 349.1,252.6 349.1,247.9 	"></polygon><polygon class="st5" points="346.1,268.7 346.1,273.3 349.1,271.7 349.1,267 	"></polygon><polygon class="st5" points="346.1,262.4 346.1,267 349.1,265.4 349.1,260.6 	"></polygon><polygon class="st5" points="340.6,152.7 340.6,157.2 343.7,155.7 343.7,150.9 	"></polygon><polygon class="st5" points="340.6,146.3 340.6,150.9 343.7,149.3 343.7,144.5 	"></polygon><polygon class="st5" points="340.6,165.4 340.6,170 343.7,168.4 343.7,163.6 	"></polygon><polygon class="st5" points="340.6,159 340.6,163.6 343.7,162 343.7,157.2 	"></polygon><polygon class="st5" points="340.6,179.3 340.6,183.9 343.7,182.3 343.7,177.5 	"></polygon><polygon class="st5" points="340.6,172.9 340.6,177.5 343.7,175.9 343.7,171.1 	"></polygon><polygon class="st5" points="340.6,192 340.6,196.6 343.7,195 343.7,190.2 	"></polygon><polygon class="st5" points="340.6,185.6 340.6,190.2 343.7,188.6 343.7,183.9 	"></polygon><polygon class="st5" points="340.7,205.9 340.7,210.4 343.7,208.9 343.7,204.1 	"></polygon><polygon class="st5" points="340.7,199.5 340.7,204.1 343.7,202.5 343.7,197.7 	"></polygon><polygon class="st5" points="340.7,218.6 340.7,223.2 343.7,221.6 343.7,216.8 	"></polygon><polygon class="st5" points="340.7,212.2 340.7,216.8 343.7,215.2 343.7,210.4 	"></polygon><polygon class="st5" points="340.7,232.5 340.7,237.1 343.7,235.5 343.7,230.7 	"></polygon><polygon class="st5" points="340.7,226.1 340.7,230.7 343.7,229.1 343.7,224.3 	"></polygon><polygon class="st5" points="340.7,245.2 340.7,249.8 343.7,248.2 343.7,243.4 	"></polygon><polygon class="st5" points="340.7,238.8 340.7,243.4 343.7,241.8 343.7,237.1 	"></polygon><polygon class="st5" points="340.7,258.5 340.7,263 343.7,261.5 343.7,256.7 	"></polygon><polygon class="st5" points="340.7,252.1 340.7,256.7 343.7,255.1 343.7,250.3 	"></polygon><polygon class="st5" points="340.7,271.2 340.7,275.8 343.7,274.2 343.7,269.4 	"></polygon><polygon class="st5" points="340.7,264.8 340.7,269.4 343.7,267.8 343.7,263 	"></polygon><polygon class="st5" points="334.2,156.6 334.2,161.2 337.2,159.6 337.2,154.9 	"></polygon><polygon class="st5" points="334.2,150.3 334.2,154.9 337.2,153.3 337.2,148.5 	"></polygon><polygon class="st5" points="334.2,169.4 334.2,174 337.2,172.4 337.2,167.6 	"></polygon><polygon class="st5" points="334.2,163 334.2,167.6 337.2,166 337.2,161.2 	"></polygon><polygon class="st5" points="334.2,183.2 334.2,187.8 337.2,186.2 337.2,181.5 	"></polygon><polygon class="st5" points="334.2,176.9 334.2,181.5 337.2,179.9 337.2,175.1 	"></polygon><polygon class="st5" points="334.2,196 334.2,200.6 337.2,199 337.2,194.2 	"></polygon><polygon class="st5" points="334.2,189.6 334.2,194.2 337.2,192.6 337.2,187.8 	"></polygon><polygon class="st5" points="334.2,209.8 334.2,214.4 337.3,212.8 337.3,208.1 	"></polygon><polygon class="st5" points="334.2,203.5 334.2,208.1 337.3,206.5 337.3,201.7 	"></polygon><polygon class="st5" points="334.2,222.6 334.2,227.2 337.3,225.6 337.3,220.8 	"></polygon><polygon class="st5" points="334.2,216.2 334.2,220.8 337.3,219.2 337.3,214.4 	"></polygon><polygon class="st5" points="334.2,236.4 334.2,241 337.3,239.4 337.3,234.7 	"></polygon><polygon class="st5" points="334.2,230.1 334.2,234.7 337.3,233.1 337.3,228.3 	"></polygon><polygon class="st5" points="334.2,249.2 334.2,253.8 337.3,252.2 337.3,247.4 	"></polygon><polygon class="st5" points="334.2,242.8 334.2,247.4 337.3,245.8 337.3,241 	"></polygon><polygon class="st5" points="334.2,262.4 334.2,267 337.3,265.4 337.3,260.7 	"></polygon><polygon class="st5" points="334.2,256.1 334.2,260.7 337.3,259.1 337.3,254.3 	"></polygon><polygon class="st5" points="334.2,275.2 334.2,279.8 337.3,278.2 337.3,273.4 	"></polygon><polygon class="st5" points="334.2,268.8 334.2,273.4 337.3,271.8 337.3,267 	"></polygon><polygon class="st5" points="328.5,160.9 328.5,165.5 331.6,163.9 331.6,159.1 	"></polygon><polygon class="st5" points="328.5,173.7 328.5,178.2 331.6,176.7 331.6,171.9 	"></polygon><polygon class="st5" points="328.5,167.3 328.5,171.9 331.6,170.3 331.6,165.5 	"></polygon><polygon class="st5" points="328.5,187.5 328.5,192.1 331.6,190.5 331.6,185.7 	"></polygon><polygon class="st5" points="328.5,181.2 328.5,185.7 331.6,184.1 331.6,179.4 	"></polygon><polygon class="st5" points="328.5,200.3 328.5,204.9 331.6,203.3 331.6,198.5 	"></polygon><polygon class="st5" points="328.5,193.9 328.5,198.5 331.6,196.9 331.6,192.1 	"></polygon><polygon class="st5" points="328.6,214.1 328.6,218.7 331.6,217.1 331.6,212.3 	"></polygon><polygon class="st5" points="328.6,207.8 328.6,212.3 331.6,210.8 331.6,206 	"></polygon><polygon class="st5" points="328.6,226.9 328.6,231.5 331.6,229.9 331.6,225.1 	"></polygon><polygon class="st5" points="328.6,220.5 328.6,225.1 331.6,223.5 331.6,218.7 	"></polygon><polygon class="st5" points="328.6,240.7 328.6,245.3 331.6,243.7 331.6,238.9 	"></polygon><polygon class="st5" points="328.6,234.4 328.6,238.9 331.6,237.4 331.6,232.6 	"></polygon><polygon class="st5" points="328.6,253.5 328.6,258.1 331.6,256.5 331.6,251.7 	"></polygon><polygon class="st5" points="328.6,247.1 328.6,251.7 331.6,250.1 331.6,245.3 	"></polygon><polygon class="st5" points="328.6,266.7 328.6,271.3 331.6,269.7 331.6,264.9 	"></polygon><polygon class="st5" points="328.6,260.4 328.6,264.9 331.6,263.4 331.6,258.6 	"></polygon><polygon class="st5" points="328.6,279.5 328.6,284.1 331.6,282.5 331.6,277.7 	"></polygon><polygon class="st5" points="328.6,273.1 328.6,277.7 331.6,276.1 331.6,271.3 	"></polygon><polygon class="st5" points="302.3,164.1 302.3,168.7 299.2,167.1 299.2,162.3 	"></polygon><polygon class="st5" points="302.3,157.8 302.3,162.3 299.2,160.8 299.2,156 	"></polygon><polygon class="st5" points="302.3,178 302.3,182.6 299.2,181 299.2,176.2 	"></polygon><polygon class="st5" points="302.3,171.6 302.3,176.2 299.2,174.6 299.2,169.8 	"></polygon><polygon class="st5" points="302.3,190.7 302.3,195.3 299.2,193.7 299.2,188.9 	"></polygon><polygon class="st5" points="302.3,184.4 302.3,188.9 299.2,187.4 299.2,182.6 	"></polygon><polygon class="st5" points="302.2,204.6 302.2,209.2 299.2,207.6 299.2,202.8 	"></polygon><polygon class="st5" points="302.2,198.2 302.2,202.8 299.2,201.2 299.2,196.4 	"></polygon><polygon class="st5" points="302.2,217.3 302.2,221.9 299.2,220.3 299.2,215.5 	"></polygon><polygon class="st5" points="302.2,210.9 302.2,215.5 299.2,213.9 299.2,209.2 	"></polygon><polygon class="st5" points="302.2,231.2 302.2,235.8 299.2,234.2 299.2,229.4 	"></polygon><polygon class="st5" points="302.2,224.8 302.2,229.4 299.2,227.8 299.2,223 	"></polygon><polygon class="st5" points="302.2,243.9 302.2,248.5 299.2,246.9 299.2,242.1 	"></polygon><polygon class="st5" points="302.2,237.6 302.2,242.1 299.2,240.6 299.2,235.8 	"></polygon><polygon class="st5" points="302.2,257.2 302.2,261.8 299.2,260.2 299.2,255.4 	"></polygon><polygon class="st5" points="302.2,250.8 302.2,255.4 299.2,253.8 299.2,249 	"></polygon><polygon class="st5" points="302.2,269.9 302.2,274.5 299.2,272.9 299.2,268.1 	"></polygon><polygon class="st5" points="302.2,263.5 302.2,268.1 299.2,266.5 299.2,261.8 	"></polygon><polygon class="st5" points="307.9,167.6 307.9,172.2 304.8,170.6 304.8,165.8 	"></polygon><polygon class="st5" points="307.9,161.2 307.9,165.8 304.8,164.2 304.8,159.4 	"></polygon><polygon class="st5" points="307.9,181.5 307.9,186 304.8,184.5 304.8,179.7 	"></polygon><polygon class="st5" points="307.9,175.1 307.9,179.7 304.8,178.1 304.8,173.3 	"></polygon><polygon class="st5" points="307.9,194.2 307.9,198.8 304.8,197.2 304.8,192.4 	"></polygon><polygon class="st5" points="307.9,187.8 307.9,192.4 304.8,190.8 304.8,186 	"></polygon><polygon class="st5" points="307.8,208.1 307.8,212.6 304.8,211.1 304.8,206.3 	"></polygon><polygon class="st5" points="307.8,201.7 307.8,206.3 304.8,204.7 304.8,199.9 	"></polygon><polygon class="st5" points="307.8,220.8 307.8,225.4 304.8,223.8 304.8,219 	"></polygon><polygon class="st5" points="307.8,214.4 307.8,219 304.8,217.4 304.8,212.6 	"></polygon><polygon class="st5" points="307.8,234.7 307.8,239.2 304.8,237.7 304.8,232.9 	"></polygon><polygon class="st5" points="307.8,228.3 307.8,232.9 304.8,231.3 304.8,226.5 	"></polygon><polygon class="st5" points="307.8,247.4 307.8,252 304.8,250.4 304.8,245.6 	"></polygon><polygon class="st5" points="307.8,241 307.8,245.6 304.8,244 304.8,239.2 	"></polygon><polygon class="st5" points="307.8,260.7 307.8,265.2 304.8,263.6 304.8,258.9 	"></polygon><polygon class="st5" points="307.8,254.3 307.8,258.9 304.8,257.3 304.8,252.5 	"></polygon><polygon class="st5" points="307.8,273.4 307.8,278 304.8,276.4 304.8,271.6 	"></polygon><polygon class="st5" points="307.8,267 307.8,271.6 304.8,270 304.8,265.2 	"></polygon><polygon class="st5" points="313.5,170.9 313.5,175.5 310.4,173.9 310.4,169.1 	"></polygon><polygon class="st5" points="313.5,164.5 313.5,169.1 310.4,167.5 310.4,162.7 	"></polygon><polygon class="st5" points="313.5,184.8 313.5,189.3 310.4,187.8 310.4,183 	"></polygon><polygon class="st5" points="313.5,178.4 313.5,183 310.4,181.4 310.4,176.6 	"></polygon><polygon class="st5" points="313.5,197.5 313.5,202.1 310.4,200.5 310.4,195.7 	"></polygon><polygon class="st5" points="313.5,191.1 313.5,195.7 310.4,194.1 310.4,189.3 	"></polygon><polygon class="st5" points="313.4,211.4 313.4,215.9 310.4,214.4 310.4,209.6 	"></polygon><polygon class="st5" points="313.4,205 313.4,209.6 310.4,208 310.4,203.2 	"></polygon><polygon class="st5" points="313.4,224.1 313.4,228.7 310.4,227.1 310.4,222.3 	"></polygon><polygon class="st5" points="313.4,217.7 313.4,222.3 310.4,220.7 310.4,215.9 	"></polygon><polygon class="st5" points="313.4,238 313.4,242.5 310.4,240.9 310.4,236.2 	"></polygon><polygon class="st5" points="313.4,231.6 313.4,236.2 310.4,234.6 310.4,229.8 	"></polygon><polygon class="st5" points="313.4,250.7 313.4,255.3 310.4,253.7 310.4,248.9 	"></polygon><polygon class="st5" points="313.4,244.3 313.4,248.9 310.4,247.3 310.4,242.5 	"></polygon><polygon class="st5" points="313.4,264 313.4,268.5 310.4,267 310.4,262.2 	"></polygon><polygon class="st5" points="313.4,257.6 313.4,262.2 310.4,260.6 310.4,255.8 	"></polygon><polygon class="st5" points="313.4,276.7 313.4,281.3 310.4,279.7 310.4,274.9 	"></polygon><polygon class="st5" points="313.4,270.3 313.4,274.9 310.4,273.3 310.4,268.5 	"></polygon><polygon class="st5" points="319.4,174.4 319.4,179 316.3,177.4 316.3,172.6 	"></polygon><polygon class="st5" points="319.4,168 319.4,172.6 316.3,171 316.3,166.2 	"></polygon><polygon class="st5" points="319.4,188.3 319.4,192.8 316.3,191.2 316.3,186.5 	"></polygon><polygon class="st5" points="319.4,181.9 319.4,186.5 316.3,184.9 316.3,180.1 	"></polygon><polygon class="st5" points="319.4,201 319.4,205.6 316.3,204 316.3,199.2 	"></polygon><polygon class="st5" points="319.4,194.6 319.4,199.2 316.3,197.6 316.3,192.8 	"></polygon><polygon class="st5" points="319.3,214.9 319.3,219.4 316.2,217.9 316.2,213.1 	"></polygon><polygon class="st5" points="319.3,208.5 319.3,213.1 316.2,211.5 316.2,206.7 	"></polygon><polygon class="st5" points="319.3,227.6 319.3,232.2 316.2,230.6 316.2,225.8 	"></polygon><polygon class="st5" points="319.3,221.2 319.3,225.8 316.2,224.2 316.2,219.4 	"></polygon><polygon class="st5" points="319.3,241.5 319.3,246.1 316.2,244.5 316.2,239.7 	"></polygon><polygon class="st5" points="319.3,235.1 319.3,239.7 316.2,238.1 316.2,233.3 	"></polygon><polygon class="st5" points="319.3,254.2 319.3,258.8 316.2,257.2 316.2,252.4 	"></polygon><polygon class="st5" points="319.3,247.8 319.3,252.4 316.2,250.8 316.2,246.1 	"></polygon><polygon class="st5" points="319.3,267.5 319.3,272 316.2,270.5 316.2,265.7 	"></polygon><polygon class="st5" points="319.3,261.1 319.3,265.7 316.2,264.1 316.2,259.3 	"></polygon><polygon class="st5" points="319.3,280.2 319.3,284.8 316.2,283.2 316.2,278.4 	"></polygon><polygon class="st5" points="319.3,273.8 319.3,278.4 316.2,276.8 316.2,272 	"></polygon><path class="st6" d="M324.5,155.1l-21.9-12.2l21.7-40.8l22,14.2L324.5,155.1z M303.9,142.5l20.1,11.3l20.9-37.1l-20.3-13.1
		L303.9,142.5z"></path></g><g id="building_3"><linearGradient id="SVGID_00000096759541090904112400000012710201933969199745_" gradientUnits="userSpaceOnUse" x1="154.3944" y1="124.3371" x2="166.1244" y2="142.3271" gradientTransform="matrix(1 0 0 -1 0 502)"><stop offset="0" style="stop-color: rgb(136, 168, 13); stop-opacity: 0;"></stop><stop offset="0.5" style="stop-color: rgb(136, 168, 13); stop-opacity: 0;"></stop><stop offset="1" style="stop-color: rgb(136, 168, 13);"></stop></linearGradient><polyline points="169.6,326.9 131.2,350.4 
		174.4,376.3 210.2,354.9 	" style="fill: url(&quot;#SVGID_00000096759541090904112400000012710201933969199745_&quot;);"></polyline><polyline class="st9" points="144.9,302.6 144.9,282.5 235.8,278.8 235.8,298.9 	"></polyline><path class="st9" d="M144.9,344c1,0.3,42,24.3,42,24.3l48.9-28l-42.3-24.1L144.9,344z"></path><path class="st9" d="M144.9,282.5c1,0.3,42,24.3,42,24.3l48.9-28l-42.3-24.1L144.9,282.5z"></path><polygon class="st10" points="186.8,368.3 186.8,306.8 144.9,282.5 144.9,344 	"></polygon><polygon class="st10" points="235.8,340.2 235.8,278.8 186.8,306.8 186.8,368.3 	"></polygon><polygon class="st11" points="235.8,340.2 235.8,278.8 186.8,306.8 186.8,368.3 	"></polygon><polygon class="st12" points="225.5,305 225.5,314.1 231.5,311 231.5,301.5 	"></polygon><polygon class="st12" points="225.5,291.7 225.5,300.8 231.5,297.6 231.5,288.2 	"></polygon><polygon class="st12" points="225.5,332.3 225.5,341.4 231.5,338.3 231.5,328.8 	"></polygon><polygon class="st12" points="225.5,318.8 225.5,327.8 231.5,324.7 231.5,315.2 	"></polygon><polygon class="st12" points="211.9,312.2 211.9,321.3 218,318.1 218,308.7 	"></polygon><polygon class="st12" points="211.9,298.9 211.9,308 218,304.8 218,295.4 	"></polygon><polygon class="st12" points="211.9,339.5 211.9,348.6 218,345.5 218,336 	"></polygon><polygon class="st12" points="211.9,326 211.9,335 218,331.9 218,322.4 	"></polygon><polygon class="st12" points="197.3,320.6 197.3,329.7 203.3,326.5 203.3,317.1 	"></polygon><polygon class="st12" points="197.3,307.3 197.3,316.3 203.3,313.2 203.3,303.7 	"></polygon><polygon class="st12" points="197.3,347.9 197.3,357 203.3,353.8 203.3,344.4 	"></polygon><polygon class="st12" points="197.3,334.3 197.3,343.4 203.3,340.3 203.3,330.8 	"></polygon><polygon class="st12" points="155.9,308.1 155.9,317.2 149.9,314.1 149.9,304.6 	"></polygon><polygon class="st12" points="155.9,294.8 155.9,303.9 149.9,300.8 149.9,291.3 	"></polygon><polygon class="st12" points="155.9,335.5 155.9,344.5 149.9,341.4 149.9,331.9 	"></polygon><polygon class="st12" points="155.9,321.9 155.9,331 149.9,327.8 149.9,318.4 	"></polygon><polygon class="st12" points="167.9,314.9 167.9,324 161.8,320.8 161.8,311.4 	"></polygon><polygon class="st12" points="167.9,301.6 167.9,310.6 161.8,307.5 161.8,298 	"></polygon><polygon class="st12" points="167.9,342.2 167.9,351.3 161.8,348.1 161.8,338.7 	"></polygon><polygon class="st12" points="167.9,328.6 167.9,337.7 161.8,334.6 161.8,325.1 	"></polygon><polygon class="st12" points="180.5,322.8 180.5,331.9 174.4,328.7 174.4,319.2 	"></polygon><polygon class="st12" points="180.5,309.5 180.5,318.5 174.4,315.4 174.4,305.9 	"></polygon><polygon class="st12" points="180.5,350.1 180.5,359.2 174.4,356 174.4,346.6 	"></polygon><polygon class="st12" points="180.5,336.5 180.5,345.6 174.4,342.5 174.4,333 	"></polygon></g><g id="building_2"><linearGradient id="SVGID_00000159465463913182195190000003621905640570670263_" gradientUnits="userSpaceOnUse" x1="64.1862" y1="188.4944" x2="92.6662" y2="213.2144" gradientTransform="matrix(1 0 0 -1 0 502)"><stop offset="0" style="stop-color: rgb(136, 168, 13); stop-opacity: 0;"></stop><stop offset="0.5" style="stop-color: rgb(136, 168, 13); stop-opacity: 0;"></stop><stop offset="1" style="stop-color: rgb(136, 168, 13);"></stop></linearGradient><polyline points="99.1,268.5 60.7,292 90.1,308.1 
		116,293.1 	" style="fill: url(&quot;#SVGID_00000159465463913182195190000003621905640570670263_&quot;);"></polyline><polygon class="st12" points="89.5,281.3 89.5,174.2 112.9,187.2 112.9,294.8 	"></polygon><polygon class="st14" points="89.5,281.3 89.5,174.2 112.9,187.2 112.9,294.8 	"></polygon><polygon class="st12" points="112.9,187.2 136.6,174.2 136.6,280.8 112.9,294.8 	"></polygon><polygon class="st1" points="89.5,174.2 112.9,159.8 136.6,174.2 112.9,187.2 	"></polygon><polyline class="st6" points="95.1,168.9 95.1,172.9 113.8,183.7 132.4,172.9 132.4,168.9 	"></polyline><polygon class="st3" points="95.1,168.9 113.6,157.6 132.4,168.9 113.6,179.3 	"></polygon><polygon class="st9" points="136.6,181.7 112.7,194.1 89.5,181.9 89.5,183.8 112.7,196 136.6,183.6 	"></polygon><polygon class="st9" points="136.6,189.5 112.7,201.9 89.5,189.7 89.5,191.6 112.7,203.7 136.6,191.3 	"></polygon><polygon class="st9" points="136.6,197.9 112.6,210.4 89.5,198.2 89.5,200.1 112.6,212.2 136.6,199.8 	"></polygon><polygon class="st9" points="136.6,205.6 112.4,218.1 89.5,206.1 89.5,208 112.4,220 136.6,207.5 	"></polygon><polygon class="st9" points="136.6,213.1 112.8,225.4 89.5,213.2 89.5,215.1 112.8,227.3 136.6,214.9 	"></polygon><polygon class="st9" points="136.6,220.7 112.6,233.2 89.5,221.1 89.5,222.9 112.6,235 136.6,222.6 	"></polygon><polygon class="st9" points="136.6,228.3 112.9,240.6 89.5,228.3 89.5,230.2 112.9,242.5 136.6,230.2 	"></polygon><polygon class="st9" points="136.6,236.2 112.7,248.6 89.5,236.5 89.5,238.3 112.7,250.5 136.6,238.1 	"></polygon><polygon class="st9" points="136.6,244.1 112.5,256.6 89.5,244.6 89.5,246.4 112.5,258.5 136.6,246 	"></polygon><polygon class="st9" points="136.6,251.8 112.3,264.4 89.5,252.4 89.5,254.3 112.3,266.3 136.6,253.7 	"></polygon><polygon class="st9" points="136.6,260.3 112.9,272.6 89.5,260.3 89.5,262.2 112.9,274.5 136.6,262.2 	"></polygon><polygon class="st9" points="136.6,268 112.7,280.4 89.5,268.2 89.5,270.1 112.7,282.2 136.6,269.8 	"></polygon><polygon class="st9" points="136.6,275.4 112.6,287.9 89.5,275.7 89.5,277.6 112.6,289.7 136.6,277.3 	"></polygon></g><g id="trees"><path class="st6" d="M47.8,260.2H49c0.7,0,1.3,0.6,1.3,1.3v22.1c0,0.7-0.6,1.3-1.3,1.3h-1.2c-0.7,0-1.3-0.6-1.3-1.3v-22.1
		C46.5,260.8,47.1,260.2,47.8,260.2z"></path><path class="st15" d="M57.6,265.2c-0.9-3.7-4.7-20.1-11.4-15.3c-3.5,2.5-4.4,6.3-5.8,10.1c-1.3,3.1-2,6.4-2.2,9.8
		c-0.1,6.8,6.8,7.6,12.1,7.6c3.1,0,7.4-1.8,8.1-5.1c0.4-2-0.3-4.4-0.7-6.3C57.7,265.7,57.6,265.5,57.6,265.2z"></path><path class="st16" d="M57.9,266c0-0.2-0.1-0.5-0.2-0.7c-0.8-3.3-3.8-16.4-9.2-16.1c1.6,6.9,3.9,14.3,2.7,21.4
		c-0.4,2.5-1.4,4.8-2.8,6.9c0.7,0,1.4,0,2.1,0c3,0,7.4-1.8,8.1-5.1C59,270.3,58.3,267.9,57.9,266z"></path><path class="st6" d="M236,255h1.2c0.7,0,1.3,0.6,1.3,1.3v22.1c0,0.7-0.6,1.3-1.3,1.3H236c-0.7,0-1.3-0.6-1.3-1.3v-22.1
		C234.7,255.5,235.3,255,236,255z"></path><path class="st15" d="M245.8,260c-0.9-3.7-4.7-20.1-11.4-15.3c-3.4,2.5-4.4,6.3-5.8,10.1c-1.2,3.1-2,6.4-2.1,9.7
		c-0.1,6.8,6.8,7.6,12.1,7.6c3.1,0,7.4-1.8,8.1-5.1c0.4-2-0.3-4.4-0.7-6.3C245.9,260.5,245.8,260.2,245.8,260z"></path><path class="st16" d="M246.1,260.7c-0.1-0.2-0.1-0.5-0.2-0.7c-0.8-3.3-3.8-16.4-9.2-16.1c1.6,6.9,3.9,14.3,2.7,21.4
		c-0.4,2.5-1.4,4.8-2.8,6.9c0.7,0,1.4,0,2.1,0c3.1,0,7.4-1.8,8.1-5.1C247.2,265,246.5,262.7,246.1,260.7z"></path><path class="st6" d="M260.5,272.6h1.2c0.7,0,1.3,0.6,1.3,1.3V296c0,0.7-0.6,1.3-1.3,1.3h-1.2c-0.7,0-1.3-0.6-1.3-1.3v-22.1
		C259.3,273.2,259.8,272.6,260.5,272.6z"></path><path class="st15" d="M270.3,277.7c-0.9-3.7-4.6-20.1-11.4-15.3c-3.4,2.5-4.4,6.3-5.8,10.1c-1.3,3.1-2,6.4-2.1,9.7
		c-0.1,6.8,6.8,7.6,12.1,7.6c3.1,0,7.4-1.8,8.1-5.1c0.4-2-0.3-4.4-0.7-6.3C270.4,278.2,270.3,277.9,270.3,277.7z"></path><path class="st16" d="M270.6,278.4c0-0.2-0.1-0.5-0.2-0.7c-0.8-3.3-3.8-16.5-9.2-16.1c1.6,6.9,3.9,14.3,2.7,21.4
		c-0.4,2.5-1.4,4.8-2.8,6.9c0.7,0,1.4,0,2.1,0c3.1,0,7.4-1.8,8.1-5.1C271.8,282.7,271,280.4,270.6,278.4z"></path><path class="st6" d="M377.9,224h1.2c0.7,0,1.3,0.6,1.3,1.3v22.1c0,0.7-0.6,1.3-1.3,1.3h-1.2c-0.7,0-1.3-0.6-1.3-1.3v-22.1
		C376.6,224.5,377.2,224,377.9,224z"></path><path class="st15" d="M387.7,229c-0.9-3.7-4.7-20.1-11.4-15.3c-3.5,2.5-4.4,6.3-5.8,10.1c-1.3,3.1-2,6.4-2.1,9.7
		c-0.1,6.8,6.8,7.6,12.1,7.6c3.1,0,7.4-1.8,8.1-5.1c0.4-2-0.3-4.4-0.7-6.3C387.8,229.5,387.7,229.2,387.7,229z"></path><path class="st16" d="M388,229.7c0-0.2-0.1-0.5-0.2-0.7c-0.8-3.3-3.8-16.5-9.2-16.1c1.6,6.9,3.9,14.3,2.7,21.4
		c-0.4,2.5-1.4,4.8-2.8,6.9c0.7,0,1.4,0,2.1,0c3,0,7.4-1.8,8.1-5.1C389.1,234,388.4,231.7,388,229.7z"></path><path class="st6" d="M256,152.4h1.2c0.7,0,1.3,0.6,1.3,1.3v22.1c0,0.7-0.6,1.3-1.3,1.3H256c-0.7,0-1.3-0.6-1.3-1.3v-22.1
		C254.7,153,255.3,152.4,256,152.4z"></path><path class="st15" d="M265.8,157.4c-0.9-3.7-4.7-20.1-11.4-15.3c-3.4,2.5-4.4,6.3-5.8,10.1c-1.3,3.1-2,6.4-2.2,9.8
		c-0.1,6.8,6.8,7.6,12.1,7.6c3,0,7.4-1.8,8.1-5.1c0.4-2-0.3-4.4-0.7-6.3C265.9,157.9,265.8,157.7,265.8,157.4z"></path><path class="st16" d="M266.1,158.1c0-0.2-0.1-0.5-0.2-0.7c-0.8-3.3-3.8-16.4-9.2-16.1c1.6,7,3.9,14.3,2.7,21.4
		c-0.4,2.5-1.4,4.8-2.8,6.9c0.7,0,1.4,0,2.1,0c3,0,7.4-1.8,8.1-5.1C267.2,162.5,266.5,160.1,266.1,158.1z"></path><path class="st6" d="M271.4,353.8h1.2c0.7,0,1.3,0.6,1.3,1.3v22.1c0,0.7-0.6,1.3-1.3,1.3h-1.2c-0.7,0-1.3-0.6-1.3-1.3V355
		C270.1,354.3,270.7,353.8,271.4,353.8z"></path><path class="st15" d="M281.1,358.8c-0.9-3.7-4.7-20.1-11.4-15.3c-3.5,2.5-4.4,6.3-5.8,10.1c-1.3,3.1-2,6.4-2.1,9.7
		c-0.1,6.8,6.8,7.6,12.1,7.6c3,0,7.4-1.8,8.1-5.1c0.4-2-0.3-4.4-0.7-6.3C281.2,359.3,281.2,359,281.1,358.8z"></path><path class="st16" d="M281.4,359.5c0-0.2-0.1-0.5-0.2-0.7c-0.8-3.3-3.8-16.5-9.2-16.1c1.6,6.9,3.9,14.3,2.7,21.4
		c-0.4,2.5-1.4,4.8-2.8,6.9c0.7,0,1.4,0,2.1,0c3,0,7.4-1.8,8.1-5.1C282.6,363.8,281.9,361.5,281.4,359.5z"></path><path class="st6" d="M72.3,277.9h1.2c0.7,0,1.3,0.6,1.3,1.3v22.1c0,0.7-0.6,1.3-1.3,1.3h-1.2c-0.7,0-1.3-0.6-1.3-1.3v-22.1
		C71.1,278.4,71.6,277.9,72.3,277.9z"></path><path class="st15" d="M82.1,282.9c-0.8-3.7-4.7-20.1-11.4-15.3c-3.4,2.5-4.4,6.3-5.8,10.1c-1.3,3.1-2,6.4-2.2,9.8
		c-0.1,6.8,6.8,7.6,12.1,7.6c3,0,7.4-1.8,8.1-5.1c0.4-2-0.3-4.4-0.7-6.3C82.2,283.4,82.2,283.2,82.1,282.9z"></path><path class="st16" d="M82.4,283.6c0-0.2-0.1-0.5-0.2-0.7c-0.8-3.3-3.8-16.5-9.2-16.1c1.6,7,3.9,14.3,2.7,21.4
		c-0.4,2.5-1.4,4.8-2.8,6.9c0.7,0,1.4,0,2.1,0c3,0,7.4-1.8,8.1-5.1C83.6,288,82.8,285.6,82.4,283.6z"></path></g><g id="building_1"><linearGradient id="SVGID_00000182494932816528187760000014441312931813505201_" gradientUnits="userSpaceOnUse" x1="140.7169" y1="232.9035" x2="169.1969" y2="257.6135" gradientTransform="matrix(1 0 0 -1 0 502)"><stop offset="0" style="stop-color: rgb(136, 168, 13); stop-opacity: 0;"></stop><stop offset="0.5" style="stop-color: rgb(136, 168, 13); stop-opacity: 0;"></stop><stop offset="1" style="stop-color: rgb(136, 168, 13);"></stop></linearGradient><polyline points="175.6,224.1 137.2,247.6 
		166.6,263.7 192.5,248.7 	" style="fill: url(&quot;#SVGID_00000182494932816528187760000014441312931813505201_&quot;);"></polyline><polygon class="st12" points="156.9,235.9 156.9,108.8 184.6,124.3 184.6,251.9 	"></polygon><polygon class="st14" points="156.9,235.9 156.9,108.8 184.6,124.3 184.6,251.9 	"></polygon><polygon class="st12" points="184.6,124.3 212.7,108.8 212.7,235.3 184.6,251.9 	"></polygon><polygon class="st1" points="156.9,108.8 184.6,91.8 212.7,108.8 184.6,124.3 	"></polygon><polyline class="st6" points="163.5,102.5 163.5,107.3 185.6,120.1 207.8,107.3 207.8,102.5 	"></polyline><polygon class="st3" points="163.5,102.6 185.5,89.1 207.8,102.6 185.5,114.8 	"></polygon><polygon class="st9" points="212.7,117.7 184.3,132.4 156.9,118 156.9,120.2 184.3,134.6 212.7,119.9 	"></polygon><polygon class="st9" points="212.7,126.9 184.3,141.6 156.9,127.2 156.9,129.4 184.3,143.8 212.7,129.2 	"></polygon><polygon class="st9" points="212.7,137 184.2,151.7 156.9,137.4 156.9,139.6 184.2,153.9 212.7,139.2 	"></polygon><polygon class="st9" points="212.7,146.1 184,160.9 156.9,146.7 156.9,148.9 184,163.1 212.7,148.3 	"></polygon><polygon class="st9" points="212.7,154.9 184.5,169.6 156.9,155.1 156.9,157.3 184.4,171.8 212.7,157.2 	"></polygon><polygon class="st9" points="212.7,164 184.2,178.8 156.9,164.4 156.9,166.6 184.2,181 212.7,166.3 	"></polygon><polygon class="st9" points="212.7,173 184.6,187.6 156.9,173.1 156.9,175.3 184.6,189.8 212.7,175.2 	"></polygon><polygon class="st9" points="212.7,182.4 184.3,197.1 156.9,182.7 156.9,184.9 184.3,199.3 212.7,184.6 	"></polygon><polygon class="st9" points="212.7,191.8 184.1,206.6 156.9,192.3 156.9,194.5 184.1,208.8 212.7,194 	"></polygon><polygon class="st9" points="212.7,200.9 183.9,215.8 156.9,201.6 156.9,203.9 183.9,218 212.7,203.1 	"></polygon><polygon class="st9" points="212.7,211 184.6,225.5 156.9,211 156.9,213.2 184.6,227.8 212.7,213.2 	"></polygon><polygon class="st9" points="212.7,220.1 184.3,234.8 156.9,220.3 156.9,222.6 184.3,237 212.7,222.3 	"></polygon><polygon class="st9" points="212.7,228.9 184.2,243.7 156.9,229.3 156.9,231.5 184.2,245.9 212.7,231.1 	"></polygon></g></svg>