<svg transform="scale(1)" version="1.1" id="Layer_1" xmlns="http://www.w3.org/2000/svg" xmlns:xlink="http://www.w3.org/1999/xlink" x="0px" y="0px" viewBox="0 0 500 500" xml:space="preserve" class="show_show__wrapper__graphic__5Waiy "><title>React</title><style type="text/css">
	.st0{fill:#96C168;}
	.st1{fill:url(#SVGID_1_);}
	.st2{fill:url(#SVGID_00000004519832066770844910000010630846914012286394_);}
	.st3{fill:url(#SVGID_00000152249267097281055280000010002107992984055961_);}
	.st4{fill:url(#SVGID_00000160887800162207443440000016247704372106268859_);}
	.st5{fill:#68E1FD;}
	.st6{fill:#D4A397;}
	.st7{opacity:0.7;fill:#FFFFFF;enable-background:new    ;}
	.st8{opacity:0.5;fill:#FFFFFF;enable-background:new    ;}
	.st9{fill:#FF734D;}
	.st10{fill:#974C13;}
	.st11{fill:#575C1C;}
	.st12{opacity:0.54;fill:#75DBD6;enable-background:new    ;}
	.st13{opacity:0.54;}
	.st14{fill:#FFFFFF;}
</style><g id="background"><path class="st0" d="M243,389.9L17.7,256.8c-7.2-4-13.3-10.6-6.3-15l226-130.3c3.4-2.1,8.5-3.5,12-1.5l236.4,137.2
		c7.2,4.2,8.5,15.8,1.3,20L272.6,389.7C263.5,395,252.2,395.1,243,389.9z"></path><linearGradient id="SVGID_1_" gradientUnits="userSpaceOnUse" x1="309.8698" y1="298.2948" x2="164.1998" y2="179.7248" gradientTransform="matrix(1 0 0 -1 0 502)"><stop offset="0" style="stop-color: rgb(18, 69, 119);"></stop><stop offset="1" style="stop-color: rgb(150, 193, 104); stop-opacity: 0;"></stop></linearGradient><path class="st1" d="M194.7,255.8L102.9,293c0,0,87.9,53.5,100.4,58.8l107.3-69.5"></path><linearGradient id="SVGID_00000172428015318672510670000004143867507600297358_" gradientUnits="userSpaceOnUse" x1="399.5457" y1="229.677" x2="452.8957" y2="266.017" gradientTransform="matrix(1 0 0 -1 0 502)"><stop offset="0" style="stop-color: rgb(255, 255, 255); stop-opacity: 0;"></stop><stop offset="0.81" style="stop-color: rgb(38, 38, 38); stop-opacity: 0.57;"></stop><stop offset="1" style="stop-color: rgb(38, 38, 38); stop-opacity: 0.67;"></stop></linearGradient><path d="M430.8,262l-74.9,17.5l25.8,23.2
		l57.4-34.7C437.4,265.3,432.9,264.3,430.8,262z" style="fill: url(&quot;#SVGID_00000172428015318672510670000004143867507600297358_&quot;);"></path><linearGradient id="SVGID_00000070826389648736885790000016472090807698798987_" gradientUnits="userSpaceOnUse" x1="119.8405" y1="276.8285" x2="51.4805" y2="221.1785" gradientTransform="matrix(1 0 0 -1 0 502)"><stop offset="0" style="stop-color: rgb(18, 69, 119);"></stop><stop offset="1" style="stop-color: rgb(150, 193, 104); stop-opacity: 0;"></stop></linearGradient><path d="M64.6,285.5l41.7-25.2
		c-1.7-2.6-6.2-3.6-8.3-6l-61.1,14.2C46.4,273.8,55.7,279.4,64.6,285.5z" style="fill: url(&quot;#SVGID_00000070826389648736885790000016472090807698798987_&quot;);"></path><linearGradient id="SVGID_00000175292660929827485090000009105172275052719281_" gradientUnits="userSpaceOnUse" x1="440.138" y1="250.4302" x2="406.258" y2="222.8502" gradientTransform="matrix(1 0 0 -1 0 502)"><stop offset="0" style="stop-color: rgb(18, 69, 119);"></stop><stop offset="1" style="stop-color: rgb(150, 193, 104); stop-opacity: 0;"></stop></linearGradient><path d="M428,263.7l-34.8,10.1
		c0,0,8.4,8.9,16.8,12.4l29.1-17.8" style="fill: url(&quot;#SVGID_00000175292660929827485090000009105172275052719281_&quot;);"></path></g><g id="coconut"><path class="st5" d="M333.7,180.1c-5.3-7.9-17.2-34.6-74.3-38c-21.1-1.2-45.9,0.3-63.7,12.8c-3.3,2.4-6.9,3.7-10.1,5.3
		c-2.3,3.2-4.4,6.7-6.4,10.1c-4.7,8.3-7.1,17.4-9.3,26.6c-0.6,7.9-0.6,15.8,0,23.8c1.4,21.6,8.5,43.3,25.4,57.8
		c14.7,12.6,34.2,17.6,53.2,18.8C359.1,304,339,187.9,333.7,180.1z"></path><path class="st6" d="M338.6,193c-3.4-14.4-133.5-23-158.3-24.5c-0.4,0.6-0.7,1.2-1,1.8c-5.5,9.7-7.9,20.6-10.4,31.4
		c-0.4,3.9-0.4,7.8,0.1,11.6c2.6,15.7,15.6,30.6,28,15.8c0,0,10.2,19.2,32.4,25s29.5-15.7,29.5-15.7s5.8,16.2,23,16.7
		s28.8-22.9,28.8-22.9s5.6,3.8,15.9,1.6S342.4,208.9,338.6,193z"></path><path class="st7" d="M338.6,193c-3.4-14.4-133.5-23-158.3-24.5c-0.4,0.6-0.7,1.2-1,1.8c-5.5,9.7-7.9,20.6-10.4,31.4
		c-0.4,3.9-0.4,7.8,0.1,11.6c2.6,15.7,15.6,30.6,28,15.8c0,0,10.2,19.2,32.4,25s29.5-15.7,29.5-15.7s5.8,16.2,23,16.7
		s28.8-22.9,28.8-22.9s5.6,3.8,15.9,1.6S342.4,208.9,338.6,193z"></path><path class="st6" d="M287.3,137.1c-1.8-0.6-51.4-5.1-85.1,9.3c-5.3,3.6-10.2,7.7-15.2,11.8c-2.9,3.8-5.5,7.9-7.8,12.1
		c-2.9,5.2-5.1,10.8-6.7,16.5c5.1,27.1,57.9,39.1,81.3,38.2c28.2-1.1,68.5-11.4,78.5-30.4L287.3,137.1z"></path><path class="st8" d="M287.3,137.1c-1.8-0.6-51.4-5.1-85.1,9.3c-5.3,3.6-10.2,7.7-15.2,11.8c-2.9,3.8-5.5,7.9-7.8,12.1
		c-2.9,5.2-5.1,10.8-6.7,16.5c5.1,27.1,57.9,39.1,81.3,38.2c28.2-1.1,68.5-11.4,78.5-30.4L287.3,137.1z"></path><path class="st6" d="M246.9,148.8c-3.9,0.4-7.8,1-11.6,1.8c-15.6,3.2-39.4,9.2-44.3,26.8c-5.6,19.6,17,34.8,59.2,36.1
		s77.7-19.9,78.4-31.9c0.3-5.1-5.4-9.9-8.9-12.9c-7.3-6.1-16-10.7-24.9-14.1C279.6,148.7,263.1,147.1,246.9,148.8z"></path><path class="st9" d="M213.1,205.6c-0.5-8.3-3.3-17-4.9-25.2c-2.6-12.8-5.3-25.6-7.9-38.4c-1-4.7-1.1-11-5-14.2
		c-3-2.4-8.1-4.3-11.9-2.8c-4.1,1.6-7.8,5.7-10.9,8.6c-7.7,7.2-14.9,14.9-21.8,22.8c-0.1,0.1-1.4,1.6-1.4,1.6l-7.7-6.1l23.9-24.1
		c3.4-3.5,6.7-7.5,11-10c4.8-2.8,11.3-4,16.6-2.2c6.8,2.2,12.6,6.1,14,13.6c0.9,5.1,1.9,10.2,2.9,15.3l7.8,38.2l5.4,26.6
		L213.1,205.6z"></path><path class="st10" d="M149.8,155.4c-0.2-0.9-0.6-1.7-1.2-2.4c-0.5-0.8-1.2-1.5-2-2c-1.8-1.1-4.6-0.6-5.6,1.4
		c-0.1,0.1-0.1,0.3-0.2,0.4c-0.4,0.8-0.4,1.8,0.1,2.6l0.1,0.1l0.1,0.2c0.8,1.2,1.8,2.2,2.9,3c1.6,1.1,3.9,0.7,5-0.9
		C149.7,157.2,149.9,156.3,149.8,155.4z"></path><path class="st11" d="M196.9,241.3c0,0,2.9,26.4,12.9,37.2C209.8,278.5,195,269.2,196.9,241.3z"></path><path class="st11" d="M257.9,251.1c0,0-1,27.5-2.6,36.9C255.2,288,261.3,273.7,257.9,251.1z"></path><path class="st11" d="M312.4,241.3c0,0,0,23.5-15,38.5C297.4,279.8,315.1,269.9,312.4,241.3z"></path><ellipse class="st12" cx="255.2" cy="189.2" rx="57.1" ry="24.3"></ellipse><path class="st5" d="M274.7,135.4c-4,3.7-7,8.4-8.7,13.5c-2.4,7.4-2.1,15.4,0.8,22.6l48.4-11.6L274.7,135.4z"></path><path class="st5" d="M315.2,159.9l34.2,30.8c3.2-3.4,5.6-7.4,7.1-11.9c2-6.1,2.1-12.7,0.4-18.9H315.2z"></path><path class="st5" d="M287.3,195c3.7,2.2,7.7,4.1,11.9,5.4c8,2.7,16.5,3.5,24.8,2.5l-8.8-43L287.3,195z"></path><path class="st5" d="M345.7,141c-6.3-6.3-13.9-10.9-22.3-13.7c-5.9-2-12.2-3-18.5-3l10.3,35.6L345.7,141z"></path><path class="st5" d="M304.9,124.3c-11.8,0.1-22.7,4-30.1,11l40.5,24.6L304.9,124.3z"></path><path class="st5" d="M356.9,159.9c-2.1-7.2-5.9-13.7-11.2-19l-30.5,19H356.9z"></path><path class="st5" d="M324,202.9c10.2-1.3,19.2-5.6,25.4-12.2l-34.2-30.8L324,202.9z"></path><path class="st5" d="M266.8,171.5c3.5,9.2,10.7,17.6,20.5,23.5l27.9-35L266.8,171.5z"></path><g class="st13"><path class="st14" d="M304.9,124.3c-11.8,0.1-22.7,4-30.1,11l40.5,24.6L304.9,124.3z"></path><path class="st14" d="M356.9,159.9c-2.1-7.2-5.9-13.7-11.2-19l-30.5,19H356.9z"></path><path class="st14" d="M324,202.9c10.2-1.3,19.2-5.6,25.4-12.2l-34.2-30.8L324,202.9z"></path><path class="st14" d="M266.8,171.5c3.5,9.2,10.7,17.6,20.5,23.5l27.9-35L266.8,171.5z"></path></g></g><g id="plant"><path class="st11" d="M101,72.8c0,0,0-0.1,0-0.1v-0.3c-0.3-2.6,3.3-2.7,4.2-0.6c0,0.1,0.1,0.2,0.1,0.3c0,0.1,0.1,0.2,0.1,0.3
		c2.3,18.7,3.3,37.5,3.2,56.4c0,2.4-3.2,2.7-4.1,1c-1.1,0.7-2.5,0.4-3.2-0.7c-0.2-0.3-0.3-0.7-0.4-1C99.5,109.6,99.6,91.2,101,72.8z
		"></path><path class="st11" d="M58.4,115.4c0.2-0.3,0.4-0.5,0.6-0.8c-0.1-0.5,0.1-1,0.3-1.3c10.6-15,30.4-8.9,39.4,4
		c2.6,2.9,4.2,6.5,4.6,10.3c0.3,2.6-3.5,2.7-4.2,0.5c-0.2-0.3-0.4-0.6-0.5-0.9c-0.7-2.8-2-5.4-3.7-7.7c-3.2-3.1-7.9-5-12.4-5.9
		c-5.8-1.2-16.8-2.3-20.2,4.1C60.8,120.1,57,117.9,58.4,115.4z"></path><path class="st11" d="M53.6,100.8c17.9-12.2,46.9,3.9,49.4,24.5c0.2,1-0.5,1.9-1.4,2.1c-0.2,0-0.4,0-0.6,0
		c-0.8,0.5-1.9,0.2-2.4-0.6c-0.1-0.1-0.1-0.2-0.1-0.3c-7.5-17.3-22.4-29.7-42-22.2c-0.1,0-0.3,0.1-0.4,0.1l-0.3,0.2
		C53.5,106.1,51.3,102.3,53.6,100.8z"></path><path class="st11" d="M64.3,89c0.1-0.1,0.2-0.3,0.4-0.4c1-0.8,2.4-1.1,3.7-0.8c21.1-2,38.4,19.2,38.5,39.3c0,1.1-0.9,2.1-2,2.1
		c-0.1,0-0.3,0-0.4,0c-1,0.8-2.4,0.6-3.2-0.4c-0.1-0.2-0.3-0.4-0.3-0.6c-2.9-8.9-4.7-18.6-11.4-25.6c-6.4-6.6-15.4-10-24.5-9.4
		C62.4,93.3,62.2,89.8,64.3,89z"></path><path class="st11" d="M74.7,79.1c0.4-0.2,0.9-0.3,1.4-0.3c21.3,3.7,30.2,23.4,30.8,43.2c0,0.5,0.1,1,0.1,1.4c0.2,2.8-4.2,2.8-4.4,0
		c0,0,0-0.1,0-0.2c0-0.1-0.1-0.2-0.1-0.3c0-0.3,0-0.6,0-0.9c-1.4-17.6-10.5-33.9-28.5-38.7C71.6,82.7,72.4,79,74.7,79.1z"></path><path class="st11" d="M105.1,72.8c0,0,0-0.1,0-0.1v-0.3c0.3-2.6-3.3-2.7-4.2-0.6c0,0.1-0.1,0.2-0.1,0.3c0,0.1-0.1,0.2-0.1,0.3
		c-2.3,18.7-3.4,37.5-3.2,56.4c0,2.4,3.2,2.7,4.1,1c1.1,0.7,2.5,0.4,3.2-0.7c0.2-0.3,0.3-0.7,0.4-1
		C106.6,109.6,106.6,91.2,105.1,72.8z"></path><path class="st11" d="M147.7,115.4c-0.2-0.3-0.4-0.5-0.6-0.8c0.1-0.5-0.1-1-0.3-1.3c-10.6-15-30.4-8.9-39.4,4
		c-2.6,2.9-4.2,6.5-4.6,10.3c-0.3,2.6,3.5,2.7,4.2,0.5c0.3-0.3,0.4-0.6,0.5-0.9c0.7-2.8,2-5.4,3.7-7.7c3.2-3.1,7.9-5,12.4-5.9
		c5.8-1.2,16.8-2.3,20.2,4.1C145.3,120.1,149.1,117.9,147.7,115.4z"></path><path class="st11" d="M152.5,100.8c-17.9-12.2-46.9,3.9-49.4,24.5c-0.2,1,0.5,1.9,1.4,2.1c0.2,0,0.4,0,0.6,0
		c0.8,0.5,1.9,0.2,2.4-0.6c0.1-0.1,0.1-0.2,0.1-0.3c7.5-17.3,22.4-29.7,42-22.2c0.1,0,0.3,0.1,0.4,0.1l0.3,0.2
		C152.6,106.1,154.8,102.3,152.5,100.8z"></path><path class="st11" d="M141.8,89c-0.1-0.1-0.2-0.3-0.4-0.4c-1-0.8-2.4-1.1-3.7-0.8c-21.1-2-38.4,19.2-38.5,39.3c0,1.1,0.9,2.1,2,2.1
		c0.1,0,0.3,0,0.4,0c1,0.8,2.4,0.6,3.2-0.4c0.1-0.2,0.3-0.4,0.3-0.6c2.9-8.9,4.7-18.6,11.4-25.6c6.4-6.6,15.4-10,24.5-9.3
		C143.7,93.3,143.9,89.8,141.8,89z"></path><path class="st11" d="M131.4,79.1c-0.4-0.2-0.9-0.3-1.4-0.3c-21.3,3.7-30.2,23.4-30.8,43.2c0,0.5-0.1,1-0.1,1.4
		c-0.2,2.8,4.2,2.8,4.4,0c0,0,0-0.1,0-0.2c0-0.1,0.1-0.2,0.1-0.3c0-0.3,0-0.6,0-0.9C105,104.5,114,88.2,132,83.3
		C134.6,82.7,133.7,79,131.4,79.1z"></path><path class="st10" d="M97.5,260.5c1.5,0.9,3.2,1.5,4.9,1.6c1.9,0.1,3.7-0.3,5.3-1.2c0.4-0.2,0.7-0.6,0.6-1
		c-0.2-27.1-1.4-137.9-1.4-137.9h-8.4c0,0,0.5,10,1.1,19.2C99.8,144.2,97.7,234.4,97.5,260.5z"></path><path class="st11" d="M432.3,79.8c0,0,0-0.1,0-0.1v-0.3c-0.3-2.6,3.3-2.7,4.2-0.6c0,0.1,0.1,0.2,0.1,0.3c0,0.1,0.1,0.2,0.1,0.3
		c2.3,18.7,3.3,37.5,3.2,56.4c0,2.4-3.2,2.7-4.1,1c-1.1,0.7-2.5,0.4-3.2-0.7c-0.2-0.3-0.3-0.7-0.4-1
		C430.8,116.6,430.9,98.2,432.3,79.8z"></path><path class="st11" d="M389.7,122.4c0.1-0.3,0.4-0.5,0.6-0.8c-0.1-0.5,0.1-1,0.3-1.3c10.5-15,30.4-8.9,39.4,4
		c2.6,2.9,4.2,6.5,4.6,10.3c0.3,2.6-3.5,2.7-4.2,0.4c-0.3-0.3-0.4-0.6-0.5-0.9c-0.7-2.8-2-5.4-3.7-7.7c-3.2-3.1-7.9-5-12.5-5.9
		c-5.8-1.2-16.8-2.3-20.2,4.1C392.1,127.1,388.4,124.9,389.7,122.4z"></path><path class="st11" d="M385,107.7c17.9-12.2,46.9,3.9,49.4,24.5c0.2,1-0.5,1.9-1.5,2.1c-0.2,0-0.4,0-0.5,0c-0.8,0.5-1.9,0.2-2.4-0.6
		c-0.1-0.1-0.1-0.2-0.1-0.3c-7.5-17.3-22.4-29.7-42-22.2c-0.1,0-0.3,0.1-0.4,0.1c-0.1,0.1-0.2,0.1-0.3,0.2
		C384.9,113.1,382.7,109.3,385,107.7z"></path><path class="st11" d="M395.6,96c0.1-0.1,0.2-0.3,0.4-0.4c1-0.8,2.4-1.1,3.7-0.8c21.1-2,38.4,19.2,38.5,39.3c0.1,1.1-0.8,2-1.9,2.1
		c-0.2,0-0.4,0-0.5,0c-1,0.8-2.4,0.6-3.2-0.4c-0.2-0.2-0.3-0.4-0.4-0.7c-2.9-8.9-4.6-18.6-11.4-25.6c-6.4-6.5-15.4-10-24.5-9.3
		C393.8,100.3,393.6,96.8,395.6,96z"></path><path class="st11" d="M406.1,86.1c0.4-0.2,0.9-0.3,1.4-0.2c21.3,3.7,30.2,23.4,30.8,43.2c0,0.5,0.1,0.9,0.1,1.4
		c0.2,2.8-4.2,2.8-4.4,0c0-0.1,0-0.1,0-0.2c0-0.1,0-0.2,0-0.3c0-0.3,0-0.6,0-0.9c-1.4-17.6-10.5-33.9-28.5-38.7
		C402.9,89.6,403.7,86,406.1,86.1z"></path><path class="st11" d="M436.5,79.8c0,0,0-0.1,0-0.1v-0.3c0.3-2.6-3.3-2.7-4.2-0.6c0,0.1-0.1,0.2-0.1,0.3c0,0.1-0.1,0.2-0.1,0.3
		c-2.3,18.7-3.4,37.5-3.2,56.4c0,2.4,3.2,2.7,4.1,1c1.1,0.7,2.5,0.4,3.2-0.7c0.2-0.3,0.3-0.7,0.4-1
		C437.9,116.6,437.9,98.2,436.5,79.8z"></path><path class="st11" d="M479,122.4c-0.2-0.3-0.4-0.5-0.6-0.8c0.1-0.5-0.1-1-0.3-1.3c-10.6-15-30.4-8.9-39.4,4
		c-2.6,2.9-4.2,6.5-4.6,10.3c-0.3,2.6,3.5,2.7,4.2,0.4c0.3-0.3,0.4-0.6,0.5-0.9c0.7-2.8,2-5.4,3.7-7.7c3.2-3.1,7.9-5,12.5-5.9
		c5.8-1.2,16.8-2.3,20.2,4.1C476.6,127.1,480.4,124.9,479,122.4z"></path><path class="st11" d="M483.8,107.7c-17.9-12.2-46.9,3.9-49.4,24.5c-0.2,1,0.5,1.9,1.5,2.1c0.2,0,0.4,0,0.5,0
		c0.8,0.5,1.9,0.2,2.4-0.6c0.1-0.1,0.1-0.2,0.1-0.3c7.5-17.3,22.4-29.7,42-22.2c0.1,0,0.3,0.1,0.4,0.1c0.1,0.1,0.2,0.1,0.3,0.2
		C483.9,113.1,486.1,109.3,483.8,107.7z"></path><path class="st11" d="M473.2,96c-0.1-0.1-0.2-0.3-0.4-0.4c-1-0.8-2.4-1.1-3.7-0.8c-21.1-2-38.4,19.2-38.5,39.3
		c-0.1,1.1,0.8,2,1.9,2.1c0.2,0,0.4,0,0.5,0c1,0.8,2.4,0.6,3.2-0.4c0.2-0.2,0.3-0.4,0.4-0.7c2.9-8.9,4.7-18.6,11.4-25.6
		c6.4-6.6,15.4-10,24.5-9.3C475,100.3,475.2,96.8,473.2,96z"></path><path class="st11" d="M462.7,86.1c-0.4-0.2-0.9-0.3-1.4-0.2c-21.3,3.7-30.2,23.4-30.8,43.2c0,0.5-0.1,0.9-0.1,1.4
		c-0.2,2.8,4.2,2.8,4.4,0c0-0.1,0-0.1,0-0.2c0-0.1,0.1-0.2,0.1-0.3c0-0.3,0-0.6,0-0.9c1.4-17.6,10.5-33.9,28.5-38.7
		C465.9,89.6,465,86,462.7,86.1z"></path><path class="st10" d="M428.8,267.5c1.5,0.9,3.2,1.5,4.9,1.6c1.9,0,3.7-0.4,5.4-1.2c0.4-0.2,0.6-0.6,0.6-1
		c-0.2-27.1-1.4-137.9-1.4-137.9h-8.4c0,0,0.5,10,1,19.2C431.1,151.2,429.1,241.4,428.8,267.5z"></path></g></svg>