<svg transform="scale(1)" version="1.1" id="Layer_1" xmlns="http://www.w3.org/2000/svg" xmlns:xlink="http://www.w3.org/1999/xlink" x="0px" y="0px" viewBox="0 0 500 500" xml:space="preserve" class="show_show__wrapper__graphic__5Waiy "><title>React</title><style type="text/css">
	.st0{fill:#297600;}
	.st1{opacity:0.32;fill:url(#SVGID_1_);enable-background:new    ;}
	.st2{fill:#AA3529;}
	.st3{opacity:0.5;enable-background:new    ;}
	.st4{fill:#68E1FD;}
	.st5{fill:#E98669;}
	.st6{fill:#CD725F;}
	.st7{fill:#FFFFFF;}
	.st8{fill:#F9B246;}
	.st9{fill:#7DC156;}
	.st10{opacity:0.48;fill:url(#SVGID_00000182524375850455417480000007470467163690334601_);enable-background:new    ;}
	.st11{fill:#294900;}
	.st12{opacity:0.48;fill:url(#SVGID_00000105420440080903512230000011369556943368475275_);enable-background:new    ;}
</style><path class="st0" id="field" d="M25.6,260.6L230.5,144c10.2-5.8,22.7-5.7,32.8,0.2l211.2,123c8.7,5.1,11.7,16.2,6.6,24.9
	c-1.6,2.8-3.9,5.1-6.7,6.7L277.4,411.9c-13.6,7.8-30.3,7.8-43.9,0L25.5,292.3c-8.7-5-11.8-16.2-6.7-24.9
	C20.4,264.5,22.8,262.2,25.6,260.6z"></path><g id="mail-box"><linearGradient id="SVGID_1_" gradientUnits="userSpaceOnUse" x1="163.9047" y1="-473.6645" x2="242.6247" y2="-547.7344" gradientTransform="matrix(1 0 0 1 0 843.16)"><stop offset="0" style="stop-color: rgb(0, 0, 0); stop-opacity: 0;"></stop><stop offset="0.99" style="stop-color: rgb(0, 0, 0);"></stop></linearGradient><path class="st1" d="M187.2,379.3l11-7.4l79.4-65.6l-18.8-8.1c-11.3,3-31.5,11.8-42,16.6c-15.5,7.1-31.2,13.6-47.1,19.9
		c-8.8,3.5-17.6,6.9-26.4,10.3C159.1,355,173.3,367,187.2,379.3z"></path><polyline class="st2" points="267.4,315.1 251.6,308.1 251.6,187 272.4,179.5 	"></polyline><polyline class="st3" points="267.4,315.1 251.6,308.1 251.6,187 272.4,179.5 	"></polyline><polyline class="st2" points="277.4,163.8 277.4,306.4 267.4,315.1 267.4,177.8 	"></polyline><path class="st4" d="M183.2,193.4v-52.8c0,0-1.4-9.4,15.3-17.7s71.8-40.6,71.8-40.6s27.1-4.8,41.6,34.7c2.6,6.7,4.2,13.6,4.9,20.7
		v41.4l-80.2,44.4L183.2,193.4z"></path><path class="st5" d="M186.3,189.6V140c0,0,1.7-13.9,16-9c14.3,4.9,29.1,23.9,32.3,41.6v44.8l-46.5-27.1"></path><path class="st4" d="M185.6,194.3l-31.2,37.8c0,0-14.2,21.9,9,34.4s45.1-13.5,45.1-13.5l26.7-30.6L185.6,194.3z"></path><path class="st2" d="M182.9,193.4l-31.2,37.8c0,0-14.2,21.9,9,34.4s45.1-13.5,45.1-13.5l26.7-30.5L182.9,193.4z"></path><path class="st6" d="M230.4,159.7c-6.4-11.7-18.3-25.6-28.1-28.9c-14.2-4.9-16,8.9-16,8.9v49.8C209,174.1,206.3,176.7,230.4,159.7z
		"></path><ellipse class="st5" transform="matrix(0.4424 -0.8968 0.8968 0.4424 5.604 346.7882)" cx="281.7" cy="168.9" rx="22.3" ry="17.8"></ellipse><path class="st7" d="M288.6,156.7c2,1.5,3,3.9,2.9,6.4c0.1,2.3-0.5,4.6-1.5,6.6c-0.8,1.8-2.2,3.3-3.9,4.1c-0.8,0.5-1.8,0.3-2.4-0.5
		c-0.5,1.1-1.4,2.1-2.5,2.6c-1,0.5-2.2,0.3-2.9-0.6c-0.9-1.2-1.3-2.7-1.2-4.1c-0.1-1.9,0.4-3.7,1.2-5.3c0.7-1.4,1.8-2.5,3.2-3.2
		c0.7-0.3,1.5-0.3,2.2,0.1l0.2-0.8l2.6-1.1l-0.6,8v1.4c0,0.4,0.2,0.6,0.6,0.5c0.9-0.5,1.6-1.4,1.9-2.3c0.6-1.3,0.9-2.8,0.8-4.3
		c0.1-1.9-0.7-3.7-2.1-4.8c-1.5-1-3.4-1-5-0.2c-2.3,1-4.1,2.8-5.2,4.9c-1.4,2.3-2.1,5-2,7.7c-0.1,2.1,0.7,4.2,2.2,5.7
		c1.4,1.3,3.3,1.5,5.8,0.4c2.2-1,4.2-2.5,5.9-4.4l1,2.4c-1.9,2.1-4.2,3.8-6.7,4.9c-3.2,1.3-5.8,1.2-7.8-0.5c-2-1.6-3-4.1-3.2-7.5
		c-0.1-3.5,0.9-7,2.8-10.1c1.6-2.9,4.1-5.2,7.2-6.6C284.5,155.3,286.7,155.4,288.6,156.7z M282.9,170.8c0.4-0.9,0.7-1.9,0.6-2.9
		c0.1-0.6-0.2-1.2-0.6-1.7c-0.4-0.3-0.9-0.4-1.3-0.2c-0.6,0.3-1.1,0.9-1.3,1.5c-0.4,0.9-0.5,1.8-0.5,2.7c0,0.7,0.1,1.3,0.5,1.9
		c0.2,0.4,0.6,0.6,1,0.4l0,0C282,172.2,282.6,171.6,282.9,170.8"></path><path class="st2" d="M304.5,127.3L304.5,127.3c0.4,0.8,0.1,1.7-0.7,2.1c0,0,0,0,0,0l-54.3,26.9c-0.8,0.4-1.7,0.1-2.1-0.7
		c0,0,0,0,0,0l0,0c-0.4-0.8-0.1-1.7,0.7-2.1l54.3-26.9C303.2,126.2,304.1,126.5,304.5,127.3C304.5,127.3,304.5,127.3,304.5,127.3z"></path><path class="st2" d="M305.2,128.6c0,0,11.2,17.9,11.6,19.2s-30.4-9.9-30.4-9.9"></path><path class="st7" d="M222,145.5c-5.2,3.9-12.3,2.2-18.2,1.3c-2.5-0.2-5-0.7-7.4-1.5c2.3-0.7,4.5-1.7,6.4-3.2
		c3.3,1.7,6.9,2.5,10.6,2.4c2.4,0.6,5,0.6,7.4,0c0.4-0.1,0.6-0.5,0.4-0.9c-0.1-0.3-0.5-0.5-0.8-0.5c-1.4,0.4-2.9,0.5-4.4,0.4
		c-0.1-0.4-0.4-0.6-0.7-0.6c-0.1-0.1-0.2-0.1-0.4-0.1c-3,0.1-5.9-0.6-8.5-2c2.1-0.4,4-1.4,5.6-2.8c0.6-0.6-0.3-1.5-0.9-0.9
		c-1.6,1.5-3.6,2.4-5.8,2.6c1.5-1.6,2.7-3.5,3.6-5.5c0.3-0.8-0.8-1.4-1.1-0.6c-0.9,2.1-2.2,4-3.9,5.7c-2.7-2.1-4.6-5-5.6-8.3
		c-0.1-0.4-0.5-0.5-0.9-0.4c-0.3,0.1-0.5,0.4-0.4,0.8c1,3.4,3,6.4,5.6,8.6h-1.2c-3.7-2.4-7.1-5.2-10.1-8.5c-0.6-0.6-1.5,0.3-0.9,0.9
		c2.6,2.7,5.4,5.2,8.5,7.4c-4.2-0.3-8.3-1.7-10.1-5.8c-0.3-0.8-1.5-0.1-1.1,0.6c1.9,4.4,6.4,6.1,10.9,6.4c0.8,0,1.7,0.1,2.5,0.1
		l0.3,0.2c-2.1,1.5-4.5,2.5-7,3c-2.6-1.4-5.1-3.1-7.6-4.7c-0.7-0.4-1.4,0.7-0.7,1.1c2,1.2,3.9,2.6,6,3.9c-1.8,0.1-3.7,0-5.5-0.4
		c-0.4-0.1-0.7,0.2-0.8,0.5c-0.1,0.3,0.1,0.7,0.4,0.8c2.6,0.5,5.2,0.6,7.8,0.1c0.6,0.3,1.2,0.6,1.8,0.8c3,1.2,6.6,1.3,9.8,1.7
		c5.7,0.8,11.9,1.9,16.9-1.8C223.3,146.1,222.7,145,222,145.5z"></path><path class="st7" d="M236.2,201.3c-3.6,0.8-7.1,1.4-10.8,1.9c1.2-1.8,2.4-3.6,3.5-5.5c2.3-1.2,4.5-2.7,6.6-4.3
		c0.6-0.5-0.3-1.5-0.9-0.9c-1.4,1.1-2.8,2.2-4.4,3.1c2.1-3.6,4-7.3,5.8-11.1c0.4-0.8-0.8-1.4-1.1-0.7c-2.1,4.5-4.4,8.8-6.9,13
		c-6.8,3.4-14.5,4.5-22,3.2c-0.8-0.1-1.2,1.1-0.4,1.3c7.1,1.2,14.4,0.4,21.1-2.5c-1,1.6-2,3.1-3.1,4.7c-3.8,0.5-7.7,0.9-11.4,1.4
		c-0.8,0.1-0.5,1.4,0.4,1.3c3.3-0.5,6.7-0.8,10.1-1.2c-1,1.4-2,2.8-3,4.1c-0.5,0.7,0.6,1.3,1.1,0.6c1.2-1.6,2.4-3.3,3.6-5
		c4.1-0.4,8.1-1.1,12.1-2c0.4-0.1,0.7-0.4,0.6-0.8C236.9,201.5,236.6,201.2,236.2,201.3L236.2,201.3z"></path></g><g id="leafs"><path class="st8" d="M319.7,260.3c3.3-1.1,6.4-2.5,9.5-4.1c2.6-1.2,5-2.8,7.1-4.7c0-0.1,0-0.2-0.1-0.2c-6.3,2.4-13.5-1.1-20.1-0.8
		c-4.4,0.2-9.2,1.3-12.6,4.1c-1.2,1.1-2.3,2.3-3.3,3.7C306.4,261.3,312.7,262.5,319.7,260.3z"></path><path class="st5" d="M126.4,244.2c-0.6,2.1-1,4.2-1.2,6.3c-0.3,1.8-0.4,3.6-0.1,5.3h0.1c1-4.1,5.4-6.6,7.5-10
		c1.6-2.3,2.4-5.1,2.3-7.8c-0.1-1-0.4-2-0.7-3C130.5,236.9,127.7,240.2,126.4,244.2z"></path><path class="st9" d="M265,349.4c-2.4,1.7-4.8,3.6-6.9,5.7c-1.9,1.6-3.5,3.5-4.8,5.6l0.1,0.2c4.7-3.5,11.5-2.3,17-4.1
		c3.6-1.2,7.3-3.2,9.5-6.5c0.8-1.2,1.4-2.5,1.9-3.9C275.8,345.4,270.3,345.9,265,349.4z"></path><path class="st6" d="M142.1,295.3c-2-3.3-4.2-6.7-8-7.9c-4.9-1.6-9.7,0.7-13.9,3c0.6,2.6,3.2,4.7,5.1,6.3c2.6,2.2,5.6,4,8.8,5.2
		c5.1,1.8,10.5,2.6,15.9,2.3C146.6,302.6,144,298.5,142.1,295.3z"></path></g><g id="tree2"><linearGradient id="SVGID_00000108289540681119724290000011033687816740809894_" gradientUnits="userSpaceOnUse" x1="373.0387" y1="-516.2311" x2="400.8987" y2="-548.5411" gradientTransform="matrix(1 0 0 1 0 843.16)"><stop offset="0" style="stop-color: rgb(41, 118, 0);"></stop><stop offset="0.99" style="stop-color: rgb(41, 73, 0);"></stop></linearGradient><path d="
		M381.3,302.8c1.5-0.3,2.8-0.2,3.4,0.5c-1.1,10.6,6.6,5.4,9.9,8.1l2.9-1.2c5.8-5.8,11.7-11.6,17.6-17.4c-2-1.5-3.9-3-5.9-4.5
		C399.4,292.3,390.1,297.2,381.3,302.8z" style="opacity: 0.48; fill: url(&quot;#SVGID_00000108289540681119724290000011033687816740809894_&quot;);"></path><path class="st2" d="M415.8,292.9v-52.4h-11.4v52.8C408.4,294.6,412.5,294.7,415.8,292.9z"></path><path class="st3" d="M411.3,240.7v53.6c1.6-0.1,3.1-0.6,4.5-1.3v-52.3H411.3z"></path><path class="st9" d="M426,245.4c7.1-0.3,16.2-2.9,13.5-10.8c-1.6-4.7-6.4-8.8-9.5-12.5s-2.4-6.2-5.9-9.8c2.9,0.1,7.2-0.4,7.9-3.4
		c0.6-2.5-13.1-18.2-19-24.5c-1.4-1.4-3.6-1.6-5.1-0.4c-7.1,5.6-25.1,20.6-22.6,24.9c1.5,2.6,4.6,3.5,7.3,3.7
		c-6.5,6.6-13.9,14.6-14.6,23.3c-0.7,7.5,7,8.5,14.2,8.1c-4.9,6-18.4,23.1-15.3,28.4c1.6,2.7,6.8,3.6,9.9,4.3c6.7,1.4,13.5,2,20.3,2
		c6.9,0.1,13.7-0.9,20.2-3c3.6-1.1,7-3,9.9-5.4c3.1-3,1.4-6.1-0.6-9.1C433,256,429.5,250.7,426,245.4z"></path><path class="st11" d="M424.2,212.3c0,0-8.6-0.6-14.6-0.4L440,237c0,0,0.8-2.9-4.6-8.9C431.3,223.2,427.5,217.9,424.2,212.3z"></path><path class="st11" d="M426,245.4h-17.8l28.9,24.8c1.8-1.3,2.4-3.8,1.3-5.7C436.6,261.2,426,245.4,426,245.4z"></path></g><g id="tree1"><linearGradient id="SVGID_00000139264453484500627900000009256198846191236012_" gradientUnits="userSpaceOnUse" x1="55.7527" y1="-538.0077" x2="72.8327" y2="-557.8276" gradientTransform="matrix(1 0 0 1 0 843.16)"><stop offset="0" style="stop-color: rgb(41, 118, 0);"></stop><stop offset="0.99" style="stop-color: rgb(41, 73, 0);"></stop></linearGradient><path d="
		M60.8,290.3c0.9-0.1,1.7-0.1,2.1,0.3c-0.7,6.6,4,3.3,6.1,5l1.8-0.7c3.6-3.6,7.2-7.1,10.8-10.7c-1.2-0.9-2.4-1.8-3.6-2.8
		C71.9,283.9,66.2,286.9,60.8,290.3z" style="opacity: 0.48; fill: url(&quot;#SVGID_00000139264453484500627900000009256198846191236012_&quot;);"></path><path class="st2" d="M82,284.3v-32.1h-7v32.4C77.3,285.4,79.8,285.3,82,284.3z"></path><path class="st3" d="M79.2,252.2v32.9c1-0.1,1.9-0.3,2.8-0.8v-32.1H79.2z"></path><path class="st9" d="M88.2,255.2c4.3-0.2,9.9-1.8,8.3-6.6c-1-2.9-3.9-5.4-5.8-7.7s-1.5-3.8-3.6-6c1.8,0.1,4.4-0.3,4.8-2.1
		c0.4-1.6-8-11.1-11.6-15c-0.8-0.9-2.2-1-3.2-0.2c-4.3,3.4-15.4,12.6-13.9,15.3c1,1.4,2.7,2.3,4.5,2.3c-3.9,3.9-8.5,9-9,14.3
		c-0.4,4.6,4.3,5.2,8.7,5c-3,3.7-11.3,14.2-9.4,17.4c1,1.7,4.2,2.2,6.1,2.6c4.1,0.8,8.3,1.2,12.4,1.2c4.2,0,8.4-0.6,12.4-1.9
		c2.2-0.7,4.2-1.8,6-3.3c1.9-1.8,0.8-3.8-0.4-5.6C92.5,261.6,90.4,258.4,88.2,255.2z"></path><path class="st11" d="M87.1,234.9c0,0-5.2-0.3-9-0.2L96.8,250c0,0,0.5-1.8-2.8-5.4C91.4,241.5,89.1,238.3,87.1,234.9z"></path><path class="st11" d="M88.2,255.2H77.4l17.7,15.2c1.1-0.8,1.4-2.3,0.8-3.5C94.7,264.8,88.2,255.2,88.2,255.2z"></path></g></svg>