<svg transform="scale(1)" version="1.1" id="Layer_1" xmlns="http://www.w3.org/2000/svg" xmlns:xlink="http://www.w3.org/1999/xlink" x="0px" y="0px" viewBox="0 0 500 500" xml:space="preserve" class="show_show__wrapper__graphic__5Waiy "><title>React</title><style type="text/css">
	.st0{fill:#FFD62C;}
	.st1{fill:url(#SVGID_1_);}
	.st2{fill:#9A433A;}
	.st3{fill:#FFE8BC;}
	.st4{fill:#b04032;}
	.st5{fill:url(#SVGID_00000111169510904333807550000008956910237611570874_);}
	.st6{fill:#68E1FD;}
	.st7{opacity:0.31;fill:#463F46;enable-background:new    ;}
	.st8{opacity:0.13;fill:#463F46;enable-background:new    ;}
	.st9{fill:#0D77A0;}
	.st10{fill:#023D4F;}
	.st11{fill:#FBB5AD;}
	.st12{fill:#AF2B38;}
</style><g id="background"><path class="st0" d="M244.1,462.3L18.2,328.8c-7.2-4-13.4-10.7-6.4-15l226.7-130.7c3.4-2.1,8.6-3.5,12-1.5l237.2,137.6
		c7.2,4.2,8.5,15.9,1.3,20L273.9,462.1C264.7,467.5,253.4,467.5,244.1,462.3z"></path><linearGradient id="SVGID_1_" gradientUnits="userSpaceOnUse" x1="171.3625" y1="89.725" x2="203.5925" y2="138.065" gradientTransform="matrix(1 0 0 -1 0 502)"><stop offset="0" style="stop-color: rgb(255, 214, 44);"></stop><stop offset="1" style="stop-color: rgb(154, 67, 58);"></stop></linearGradient><path class="st1" d="M149.3,362.3c-5.3-3.5-10.1-7.8-15.5-11.2l-42,21.3L228.2,453l39.6-26.3C265.6,425.4,151.5,363.7,149.3,362.3z
		"></path></g><g id="book"><path class="st2" d="M354.7,376.2c0.4,0,4.4-1.6,1.1-4.1c-2.2-1.7-4.5-3.3-6.9-4.7"></path><path class="st3" d="M354.7,355.2c0,0-3.3,12.3,0,18.9l-45.3,26.6l-44.8,25.9v-19.2"></path><path class="st2" d="M356.2,353.2c-0.1,0.9-0.2,1.7-0.3,2.6l-91.3,51.7v19.2l91.2-53.2c0,0.8,0,1.5,0,2.3l-94.8,54.9v-26.1
		L356.2,353.2z"></path><path class="st4" d="M355.7,353.6l-94.2,53.9l-132.1-77.6l92.1-52.9c2.8-1.6,6.3-1.6,9.1,0.1l125,74.1c0.7,0.4,0.9,1.2,0.5,1.9
		C356.1,353.3,355.9,353.5,355.7,353.6z"></path><path class="st2" d="M261.1,430.6c0,0-132-77.8-131.6-78.1s0-22.5,0-22.5l132.1,77.6L261.1,430.6z"></path><path class="st2" d="M355.8,351.2c0.8,0.6,1.3,1.4,1.4,2.4c0.2,1.6-1.5,2.4-2.1,2.7"></path><linearGradient id="SVGID_00000019660554438947926090000007019875864816022192_" gradientUnits="userSpaceOnUse" x1="208.4211" y1="136.0193" x2="243.6011" y2="188.7793" gradientTransform="matrix(1 0 0 -1 0 502)"><stop offset="0" style="stop-color: rgb(242, 98, 80);"></stop><stop offset="1" style="stop-color: rgb(70, 63, 70);"></stop></linearGradient><polyline points="203.7,321 158.6,347.1 
		225.7,386.4 276.8,357 	" style="fill: url(&quot;#SVGID_00000019660554438947926090000007019875864816022192_&quot;);"></polyline></g><g id="trophy"><path class="st6" d="M133.6,206.4l-8.6-8.7c-2-2-5.2-2-7.2,0c-2,2-2,5.2,0,7.2l0,0l8.7,8.6c2,2,5.2,2,7.2,0
		S135.6,208.4,133.6,206.4L133.6,206.4L133.6,206.4z"></path><path class="st6" d="M113,223.4H99.1c-6.5,0-6.6,10.2,0,10.2H113C119.5,233.6,119.5,223.4,113,223.4z"></path><path class="st6" d="M134.2,245.6c-2-1.9-5.2-1.9-7.2,0l-9.2,9.2c-2,2-2,5.2,0,7.2s5.2,2,7.2,0l0,0l9.2-9.2
		C136.1,250.8,136.1,247.6,134.2,245.6z"></path><path class="st6" d="M343.2,253.9l8.7,8.7c2,2,5.2,2,7.2,0s2-5.2,0-7.2l0,0l-8.6-8.6c-2-2-5.2-2-7.2,0S341.2,251.9,343.2,253.9
		L343.2,253.9z"></path><path class="st6" d="M363.8,236.9h13.9c6.5,0,6.5-10.2,0-10.2h-13.9C357.3,226.7,357.3,236.9,363.8,236.9z"></path><path class="st6" d="M342.6,214.6c2,1.9,5.2,1.9,7.2,0l9.2-9.2c1.9-2.1,1.8-5.3-0.2-7.2c-2-1.8-5-1.8-6.9,0l-9.2,9.2
		C340.6,209.5,340.6,212.6,342.6,214.6z"></path><path class="st6" d="M202.1,327.8v15.3c0,0,8.9,22.3,42.3,22.3s44.9-21.5,44.9-21.5v-14"></path><ellipse class="st6" cx="245.8" cy="327.8" rx="43.6" ry="25.4"></ellipse><ellipse class="st7" cx="245.8" cy="327.8" rx="43.6" ry="25.4"></ellipse><path class="st6" d="M230.4,295.8v17.7c0,0,4.1,7.5,16.1,7.5c11.9,0,14.8-8.6,14.8-8.6v-20.2"></path><path class="st6" d="M298.9,234.4l22.1,13.1c0,0,4.6,46.8-39.5,37.3l6.8-10.3c0,0,20.5,1.6,20.3-20.5l-11.9-6.2L298.9,234.4z"></path><path class="st6" d="M193.6,174.3l-21.8-12c-2.6,0.8-4.3,3.3-4.2,6c0.2,4.8-1.6,34.4,24.9,61.6V211c0,0-10.6-14.4-11.9-29.5
		l10.8,6.5"></path><path class="st6" d="M189.4,186.6l4.9,69.7c0,0,6.9,41.5,51.5,41.5s51-41.1,51-41.1l6.6-70"></path><path class="st8" d="M267.9,215.5c0,0,17.3-2.2,25.5-13.7c0,0-1.9,77-14.9,85.5s-15.6,11.4-40.8,10.3
		C237.7,297.7,269.7,295.2,267.9,215.5z"></path><ellipse class="st6" cx="246.4" cy="186.6" rx="57" ry="32.8"></ellipse><ellipse class="st9" cx="246.4" cy="186.6" rx="57" ry="32.8"></ellipse><ellipse class="st10" cx="245.8" cy="186.5" rx="45.8" ry="22.4"></ellipse></g><g id="character"><path class="st11" d="M292.3,157.5l3.4-5.4c0,0,1-4.9,2.2-4.4s0.6,5.2,0.6,5.2s6.9-6.8,8.8-4.8s3,7.1,1.9,8.4s-13.9,6.9-13.9,6.9"></path><path class="st11" d="M211.3,128.3l1.2-5.1c0,0,2.3-3.4,1.4-3.9s-3.4,2.7-3.4,2.7s0-8.1-2.3-8.1s-6,2.3-6.1,3.8s4,12.4,4,12.4"></path><path class="st4" d="M219.1,148.9c-0.8-3.1-4.9-16.7-6.2-23c-4.7-0.7-7-0.7-10,2.6c1.1,8.1,3.2,22.1,4.6,26.8
		c2.1,6.9,24.5,23.7,24.5,23.7l5.7-21.2C237.7,157.8,220.1,152.9,219.1,148.9z"></path><path class="st4" d="M291.6,155.3c0,0-15.7,18-20.2,18.3s-14.4-9.5-14.4-9.5l-15.1-5.8c0.1,6.8,0.2,13.5,0.1,20.3l12.7,5.4
		c0,0,6.7,8.9,16.7,9.7s28.3-29.2,28.3-29.2C299.4,161.1,291.6,155.3,291.6,155.3z"></path><path class="st4" d="M253.6,205.1c0,0,10.6-30.8,6.3-37.9s-21.5-12.6-29.7-11.9s-3,49.4-1.6,49.8S242,213.9,253.6,205.1z"></path><path class="st12" d="M226.8,200.5v7.3c0,0,13.9,3.9,27.8,1.1l-0.8-6.4C253.9,202.5,242.9,208.1,226.8,200.5z"></path><path class="st11" d="M231.1,143c0,0,0,18,6.6,19.2c7.3,1.3,11.3-7,11.3-7s0.9-15.9-6.3-17.3S231.3,140.7,231.1,143z"></path><path class="st2" d="M231.9,145.2c-2.2-0.6-4.9-1.3-6.3-3.4c-2-3.2,0.2-6.5,2.9-8.4c3.2-2.2,7.2-3,11-2.1
		c5.2,0.9,12.5,3.1,13.9,8.9c2,8.1-5.8,18.2-5.8,18.2v-5c0,0,2.6-3.3,1.2-4.6s-1.9,1.8-1.9,1.8s0.6-6-3.7-6.6
		c-1.8-0.3-2.4,0.7-3.8,1.5c-1,0.5-2.1,0.7-3.2,0.6C234.8,146,233.3,145.7,231.9,145.2z"></path></g></svg>