<svg transform="scale(1)" id="_0520_data_analyzing" data-name="0520_data_analyzing" xmlns="http://www.w3.org/2000/svg" xmlns:xlink="http://www.w3.org/1999/xlink" viewBox="0 0 500 500" class="show_show__wrapper__graphic__5Waiy "><title>React</title><defs><style>.cls-1{fill:none;}.cls-15,.cls-2,.cls-6{fill:#363634;}.cls-3{fill:#dd6f31;}.cls-4{fill:#42210b;}.cls-5{fill:#ffba8b;}.cls-6{opacity:0.05;}.cls-7{fill:#ff8522;}.cls-12,.cls-8{fill:#fff;}.cls-9{fill:url(#_10_dpi_10_2);}.cls-10{fill:#442f31;}.cls-11{fill:#8787d1;}.cls-12{opacity:0.64;}.cls-13{fill:#68e1fd;}.cls-14{fill:#8ccc00;}.cls-15{opacity:0.13;}</style><pattern id="_10_dpi_10_2" data-name="10 dpi 10% 2" width="28.8" height="28.8" patternTransform="translate(-5980.23 -3690.31) scale(0.43)" patternUnits="userSpaceOnUse" viewBox="0 0 28.8 28.8"><rect class="cls-1" width="28.8" height="28.8"></rect><circle class="cls-2" cx="28.8" cy="28.8" r="0.72"></circle><path class="cls-2" d="M14.4,29.52a.72.72,0,1,0-.72-.72A.72.72,0,0,0,14.4,29.52Z"></path><path class="cls-2" d="M28.8,15.12a.72.72,0,1,0-.72-.72A.72.72,0,0,0,28.8,15.12Z"></path><path class="cls-2" d="M14.4,15.12a.72.72,0,1,0-.72-.72A.72.72,0,0,0,14.4,15.12Z"></path><path class="cls-2" d="M7.2,22.32a.72.72,0,1,0-.72-.72A.72.72,0,0,0,7.2,22.32Z"></path><path class="cls-2" d="M21.6,22.32a.72.72,0,1,0-.72-.72A.72.72,0,0,0,21.6,22.32Z"></path><path class="cls-2" d="M7.2,7.92a.72.72,0,1,0-.72-.72A.72.72,0,0,0,7.2,7.92Z"></path><path class="cls-2" d="M21.6,7.92a.72.72,0,1,0-.72-.72A.72.72,0,0,0,21.6,7.92Z"></path><circle class="cls-2" cy="28.8" r="0.72"></circle><path class="cls-2" d="M0,15.12a.72.72,0,0,0,0-1.44.72.72,0,0,0-.72.72A.72.72,0,0,0,0,15.12Z"></path><path class="cls-2" d="M28.8.72A.72.72,0,0,0,29.52,0a.72.72,0,0,0-.72-.72.72.72,0,0,0-.72.72A.72.72,0,0,0,28.8.72Z"></path><path class="cls-2" d="M14.4.72A.72.72,0,0,0,15.12,0a.72.72,0,0,0-.72-.72.72.72,0,0,0-.72.72A.72.72,0,0,0,14.4.72Z"></path><path class="cls-2" d="M0,.72A.72.72,0,0,0,.72,0,.72.72,0,0,0,0-.72.72.72,0,0,0-.72,0,.72.72,0,0,0,0,.72Z"></path></pattern></defs><path class="cls-3" id="background" d="M242.74,398.17,16.87,264.68c-7.19-4-13.36-10.67-6.35-15L237.2,119c3.4-2.1,8.57-3.48,12-1.48L486.32,255.15c7.2,4.17,8.48,15.84,1.29,20L272.51,398A30,30,0,0,1,242.74,398.17Z"></path><g id="data"><path class="cls-4" d="M225.69,105l-2.89,15-6.92,36-8.38,43.6-7.24,37.68c-1.18,6.1-2.43,12.18-3.52,18.3,0,.08,0,.17-.05.25-.46,2.37,3.18,3.39,3.64,1l2.88-15,6.93-36,8.38-43.59,7.24-37.69c1.17-6.1,2.43-12.18,3.52-18.3,0-.08,0-.17,0-.25.46-2.37-3.17-3.39-3.63-1Z"></path><path class="cls-4" d="M263.83,190.1l2.89,8.13,7,19.66,8.43,23.68,7.33,20.59c1.18,3.33,2.3,6.69,3.55,10a.88.88,0,0,1,.05.15c.81,2.27,4.46,1.29,3.64-1l-2.89-8.13-7-19.66-8.43-23.68-7.33-20.6c-1.18-3.32-2.3-6.68-3.55-10a.88.88,0,0,1,0-.15c-.81-2.27-4.46-1.29-3.64,1Z"></path><path class="cls-5" d="M182.09,84.15s-1.45-.62-1.21,16.69,1.21,103.67,1.21,103.67l25.25-16.35L194.09,86.65S187.87,78.76,182.09,84.15Z"></path><path class="cls-6" d="M182.09,84.15s-1.45-.62-1.21,16.69,1.21,103.67,1.21,103.67l25.25-16.35L194.09,86.65S187.87,78.76,182.09,84.15Z"></path><polygon class="cls-7" points="186.9 89.97 207.95 239.5 282.5 195.65 264.96 54.01 186.9 89.97"></polygon><path class="cls-5" d="M188.18,99.07s3.64-8.8.87-12.43c-3.09-4.06-7-2.49-7-2.49S228.4,59.45,261.85,44c0,0,11.43,4,3.79,15.48Z"></path><polygon class="cls-2" points="207.34 239.5 214.34 242.09 289.74 197.04 289.74 193.4 282.22 193.4 207.34 236.82 207.34 239.5"></polygon><path class="cls-4" d="M218.72,237.05l-.87,26.79-1.39,42.73-.32,9.85c-.08,2.43,3.69,2.42,3.77,0l.87-26.79,1.39-42.74.32-9.84c.08-2.43-3.69-2.42-3.77,0Z"></path><ellipse class="cls-8" cx="236.29" cy="143.39" rx="27.77" ry="36.6"></ellipse><ellipse class="cls-9" cx="236.29" cy="143.39" rx="27.77" ry="36.6"></ellipse><path class="cls-10" d="M238.35,143.39l-8.08-35.72s14-5.88,24.6,8.52Z"></path><path class="cls-11" d="M238.35,143.39s21.88,18.67,22.44,17.24,11-23.57-5.92-44.44Z"></path><rect class="cls-8" x="213.77" y="186.87" width="62.66" height="1.26" transform="translate(-59.42 137.54) rotate(-28.1)"></rect><rect class="cls-8" x="213.77" y="193.63" width="62.66" height="1.26" transform="translate(-62.61 138.34) rotate(-28.1)"></rect><rect class="cls-8" x="213.77" y="201.04" width="62.66" height="1.26" transform="translate(-66.1 139.21) rotate(-28.1)"></rect><path class="cls-8" d="M203.6,111.67l18.73-10L252,85.76l6.82-3.64c2.14-1.15.23-4.4-1.91-3.26l-18.73,10-29.7,15.89-6.82,3.65c-2.14,1.14-.24,4.4,1.91,3.25Z"></path></g><g id="character"><path class="cls-12" d="M283.54,100.45,245.89,155.8l7.3,6.66L290,105.91A73.91,73.91,0,0,1,283.54,100.45Z"></path><path class="cls-12" d="M267.19,97.46l-29,42.68a67.82,67.82,0,0,0,3.77,11.8l34.62-53.26C273.42,98.32,270.34,97.24,267.19,97.46Z"></path><path class="cls-13" d="M260.13,166.79a24.7,24.7,0,0,1-8.37-1.45c-7.72-2.78-13.58-9.15-16.5-17.94a44.62,44.62,0,0,1,17.81-49.52c7.85-4.92,16.43-6.1,24.15-3.33,15.66,5.64,22.7,26.1,15.68,45.61C287.11,156.28,273.51,166.79,260.13,166.79Zm8.65-67.41a23.39,23.39,0,0,0-12.37,3.82,38.35,38.35,0,0,0-15.18,42.22c2.29,6.92,6.79,11.89,12.66,14,12.41,4.46,27.25-5.14,33.1-21.39s.51-33.11-11.9-37.57A18.57,18.57,0,0,0,268.78,99.38Z"></path><path class="cls-13" d="M263,164.18l2.76,64.1c.21,4.84,7.75,4.86,7.54,0l-2.76-64.1c-.21-4.83-7.75-4.86-7.54,0Z"></path><path class="cls-5" d="M275.32,206.22a1.23,1.23,0,0,0,.38-1.38,1.87,1.87,0,0,0-1.05-1.05,1.83,1.83,0,0,0,.23-1.59,2,2,0,0,0-.41-.73c-.15-.16-.42-.43-.66-.4l.11-.08a.73.73,0,0,1-.14-.5,1.72,1.72,0,0,0-.07-.21,1.92,1.92,0,0,0-1.93-1,3.74,3.74,0,0,0-1.57.86,48.91,48.91,0,0,1-5.54,3.69c-.26.15-.61.29-.83.09a.7.7,0,0,1-.09-.69c.4-1.52,1.43-2.84,1.7-4.39a.87.87,0,0,0,0-.53.66.66,0,0,0-.76-.3,1.9,1.9,0,0,0-.76.47c-3,2.66-4.89,6.27-6.75,9.79a26.73,26.73,0,0,0,3.67,5,1.62,1.62,0,0,0,.94.56,1.7,1.7,0,0,0,.69-.16l8.85-3.32c1.14-.43,2.28-.86,3.38-1.37.69-.31,1.46-.8,1.49-1.56A1.39,1.39,0,0,0,275.32,206.22Z"></path><path class="cls-4" d="M267.72,204.48l-.16-.27c.83-.5,2-1.08,3.09-1.64s2.26-1.14,3.08-1.63l.16.27c-.83.49-2,1.08-3.1,1.64S268.54,204,267.72,204.48Z"></path><path class="cls-4" d="M269.36,206.18l-.13-.29c.75-.33,1.73-.74,2.68-1.13s1.92-.79,2.67-1.12l.13.29c-.75.33-1.73.73-2.68,1.12S270.11,205.85,269.36,206.18Z"></path><path class="cls-4" d="M270.34,208.09l-.11-.3,2.52-.86c.89-.29,1.81-.6,2.51-.85l.11.3c-.71.25-1.63.56-2.52.85S271,207.83,270.34,208.09Z"></path><path class="cls-2" d="M222.64,341c-2.2-1.42-5.21,1-7.1.8S213,331.08,213,331.08l-11-.33-.65,20.81a19.49,19.49,0,0,0,4.58,2.3s-.73-9.53,1.27-9.3,2.75,7.56,5.14,8.31,9.79-3.95,11-4.78S224.84,342.39,222.64,341Z"></path><path class="cls-2" d="M245.49,354.47c-2.19-1.43-5.2,1-7.09.8s-2.6-10.68-2.6-10.68l-11-.34-.65,20.82a19.5,19.5,0,0,0,4.57,2.3s-.73-9.53,1.27-9.3,2.76,7.55,5.15,8.31,9.78-3.95,11-4.78S247.69,355.89,245.49,354.47Z"></path><path class="cls-13" d="M204,238.26s-8.23,15.64-6.7,103c0,0,9.1,6.29,23.45,3,0,0,.52-101.8-.93-105.48S204,238.26,204,238.26Z"></path><path class="cls-13" d="M231.29,236.42c3.08,20.17,6.2,40.36,7.92,60.69,1.47,17.34,1.85,34.77,2.84,52.14,0,.63.07,1.27.11,1.9,0,0-12.55,7.18-26.68.59,0,0-3.9-84.77-3.53-96.37s.94-25,7.4-26.86S231.29,236.42,231.29,236.42Z"></path><path class="cls-14" d="M203.23,195.45s-16.56,21.39-12.48,28.67S212,225.7,212,225.7"></path><path class="cls-15" d="M203.23,195.45s-16.56,21.39-12.48,28.67S212,225.7,212,225.7"></path><path class="cls-14" d="M262.33,208a29.55,29.55,0,0,0-1.62-6.95c-4.92,6.16-12.36,14.27-14.78,10.55-11.87-18.23-26.35-20.28-26.35-20.28s-15.52-5-17.83,1.69.19,44,2.72,47a1.74,1.74,0,0,0,.14.12,21.29,21.29,0,0,0,4,2.06,36.33,36.33,0,0,0,6.69,1.39c4.82.2,11.72-1.39,15.66-4.21,2-5.25,2.6-23,2.6-23s4.51,13,14,10.51c4.2-1.09,10.45-6.59,15.69-11.86C263.15,212.68,262.68,210.35,262.33,208Z"></path><path class="cls-5" d="M228.32,176.69s.53,14-2.26,14.27-8.16-1.18-8.13-4,0-9.07,2.54-9.95S227,174.17,228.32,176.69Z"></path><path class="cls-4" d="M228.57,178.25s3.52-5.29-2.45-8.75-15.94-2.73-18.37,5c-2.28,7.3.16,8.62-3.36,11s-8.18,4.93-6.38,9.64,2.89,3,3.74,5-2.68,5-.61,8.45,12.22,6.25,16,2.07,1.69-10.15,4.48-11.29,4.61-4.36,4-7-5.85-7.28-3.81-10S228.57,178.25,228.57,178.25Z"></path><path class="cls-2" d="M212.58,263c0-1.06-1.7-1.11-1.67-.05q.89,44.39,4.44,88.66c.09,1,1.76,1.11,1.68.05Q213.48,307.4,212.58,263Z"></path></g><g id="plant"><path class="cls-13" d="M393.47,233.42s-2.57,30.58,13.74,36,24.45-10.23,23.83-37.17"></path><ellipse class="cls-2" cx="412.26" cy="232.82" rx="18.79" ry="10.87" transform="translate(-7.2 13.23) rotate(-1.82)"></ellipse><path class="cls-14" d="M416.31,208.51s-7.72-10.41-4.73-17.87c0,0,2.5-4.81,6.23-5.69,0,0-.05,10.11,3.67,8.7s-.34-10.56-.34-10.56,3.78-5.47,8.1-5.44.3,9.44,3.26,7.81-.11-9.43,3.24-10.48a70.33,70.33,0,0,1,9.35-1.8s3.49,9.1.33,10.52-7.83,2-5.51,4,8.63-.58,8.63-.58.56,5.17-1.54,7.48-15-2.24-12.64,2.14,10.78,1.88,10.78,1.88-4.12,6.32-9.1,9.3S416.31,208.51,416.31,208.51Z"></path><path class="cls-14" d="M418.88,235.1s-5.49-5.09-4.59-9.64c0,0,.9-3,2.93-3.9,0,0,1,5.75,3,4.55s-1.32-6-1.32-6,1.56-3.51,4-4,1.18,5.32,2.68,4.08-1.07-5.34.72-6.29a41.23,41.23,0,0,1,5.12-2s2.95,4.8,1.31,5.94-4.23,2-2.71,2.84,4.84-1.25,4.84-1.25.87,2.87-.07,4.41-8.78.33-6.95,2.56,6.32-.08,6.32-.08a20.12,20.12,0,0,1-4.18,6.25C427.5,234.86,418.88,235.1,418.88,235.1Z"></path><path class="cls-14" d="M398.93,224.36s-12.93.91-17.62-5.61c0,0-2.71-4.7-1.44-8.32,0,0,8.49,5.48,9.3,1.58s-9.09-5.39-9.09-5.39-2.58-6.12-.23-9.75,8.12,4.81,8.33,1.44-8-5-7.09-8.36a71.42,71.42,0,0,1,3.5-8.85s9.55,2,9.05,5.37-2.51,7.69.39,6.79,4.15-7.59,4.15-7.59,4.66,2.3,5.48,5.31-10,11.48-5,11.81,7.38-8.08,7.38-8.08,3.1,6.87,2.94,12.67S398.93,224.36,398.93,224.36Z"></path><path class="cls-2" d="M442.41,177.35c-1.34,1.2-2.68,2.43-4,3.67.1-1.47.22-2.94.41-4.4.1-.77-1.09-1.07-1.19-.29q-.37,2.94-.52,5.9c-3.53,3.3-7,6.74-10.26,10.37a44.3,44.3,0,0,1-.46-7.46c0-.79-1.2-.75-1.22,0a44.47,44.47,0,0,0,.64,8.62,83.61,83.61,0,0,0-5.79,7.45,24.22,24.22,0,0,1-4.5-9.63c-.17-.77-1.34-.4-1.17.36a25.12,25.12,0,0,0,4.85,10.21.6.6,0,0,0,.12.11c-5.13,7.79-8.56,16.46-8.56,26.37,0,.79,1.22.75,1.22,0,0-9.55,3.28-17.92,8.21-25.46a47,47,0,0,0,15.19,1c.78-.08.75-1.3,0-1.23a46,46,0,0,1-14.43-.87,88.69,88.69,0,0,1,8.2-10.16.29.29,0,0,0,.11,0c2.86.16,5.72.32,8.59.34,1.86,0,3.63.11,5.3-.79.69-.38,0-1.41-.65-1-1.95,1.06-4.72.62-6.84.57-1.82-.05-3.63-.15-5.45-.25,4.23-4.45,8.77-8.62,13.16-12.59C443.88,177.66,443,176.82,442.41,177.35Z"></path><path class="cls-2" d="M405.27,202.36a.61.61,0,0,0-1.19-.29,21.67,21.67,0,0,1-7.49,11.53q-2.26-5.7-4.17-11.54a36.71,36.71,0,0,0,6.85-10.35c.32-.72-.76-1.31-1.08-.59A35.28,35.28,0,0,1,392,200.7c-1.42-4.45-2.7-9-3.79-13.52-.19-.77-1.35-.4-1.17.36A191.78,191.78,0,0,0,392.43,206a28.54,28.54,0,0,1-6.75-2c-.71-.31-1.3.77-.58,1.08a29.73,29.73,0,0,0,7.8,2.21h0c1.41,4,3,7.91,4.66,11.8a29.54,29.54,0,0,1-10.71-2c-.73-.28-1.32.79-.59,1.08a31.24,31.24,0,0,0,11.81,2.15q3.18,7.26,6.95,14.26c.37.7,1.41,0,1-.65a190.39,190.39,0,0,1-9-19.14h0A23,23,0,0,0,405.27,202.36Z"></path><path class="cls-2" d="M427.92,217.46l-3.19,5.75a10.88,10.88,0,0,1-1.12-1.73c-.36-.7-1.4,0-1,.65a11.62,11.62,0,0,0,1.48,2.18l.05,0-3.45,6.23a2.45,2.45,0,0,1-.8-1.44c-.12-.77-1.34-.74-1.22,0a3.8,3.8,0,0,0,1.43,2.47l-4.32,7.8a.61.61,0,0,0,1.07.58l5.7-10.28a9.11,9.11,0,0,0,3-.54c.73-.27.38-1.44-.36-1.17a8.94,8.94,0,0,1-1.88.42L429,218A.61.61,0,0,0,427.92,217.46Z"></path></g><g id="clock"><path class="cls-13" d="M89,96.55c12.67,5.78,15.48,26.82,6.27,47s-26.94,31.84-39.61,26.05-17.24-29.74-8-49.91S76.34,90.77,89,96.55Z"></path><path class="cls-15" d="M89,96.55c12.67,5.78,15.48,26.82,6.27,47s-26.94,31.84-39.61,26.05-17.24-29.74-8-49.91S76.34,90.77,89,96.55Z"></path><path class="cls-8" d="M85.9,105.23c10.16,4.63,12.64,21,5.54,36.56S70.35,166.2,60.19,161.56s-14.16-22.48-7.06-38S75.74,100.59,85.9,105.23Z"></path><path class="cls-2" d="M80.47,109.87l-7.34,22.31-1,3.17L74.4,134l-11.8-2.66c-2.36-.53-3.37,3.1-1,3.63l11.8,2.67a1.93,1.93,0,0,0,2.32-1.32L83.06,114l1-3.17c.76-2.31-2.87-3.3-3.63-1Z"></path><path class="cls-2" d="M72.11,109.93a1.49,1.49,0,0,0,.46,2.95A1.49,1.49,0,0,0,72.11,109.93Z"></path><path class="cls-2" d="M75.31,154.8a1.49,1.49,0,0,0,.46,2.95A1.49,1.49,0,0,0,75.31,154.8Z"></path><path class="cls-2" d="M91.68,127a1.49,1.49,0,0,0,.47,3A1.49,1.49,0,0,0,91.68,127Z"></path><path class="cls-2" d="M54.65,137.3a1.49,1.49,0,0,0,.46,2.95A1.49,1.49,0,0,0,54.65,137.3Z"></path><path class="cls-15" d="M73.9,135.85S62.69,112.9,62.67,112.93s-7.6,8.6-10.41,18.51Z"></path></g></svg>